<svg width="106" height="54" viewBox="0 0 106 54" fill="none" xmlns="http://www.w3.org/2000/svg">
    <path fill-rule="evenodd" clip-rule="evenodd" d="M53 0C69.1208 0 82 12.8792 82 29C82 45.1208 69.1208 58 53 58C36.8792 58 24 45.1208 24 29C24 12.8792 36.8792 0 53 0Z" fill="#FFA726"/>
    <path fill-rule="evenodd" clip-rule="evenodd" d="M53 10C64.0457 10 73 18.9543 73 30C73 41.0457 64.0457 50 53 50C41.9543 50 33 41.0457 33 30C33 18.9543 41.9543 10 53 10Z" fill="#FFB74D"/>
    <path fill-rule="evenodd" clip-rule="evenodd" d="M53 20C58.5228 20 63 24.4772 63 30C63 35.5228 58.5228 40 53 40C47.4772 40 43 35.5228 43 30C43 24.4772 47.4772 20 53 20Z" fill="#FFCC80"/>
    <path fill-rule="evenodd" clip-rule="evenodd" d="M53 30C55.2091 30 57 31.7909 57 34C57 36.2091 55.2091 38 53 38C50.7909 38 49 36.2091 49 34C49 31.7909 50.7909 30 53 30Z" fill="#FFE0B2"/>
</svg>
