<?xml version="1.0" encoding="utf-8"?>
<!-- Generator: Adobe Illustrator 27.5.0, SVG Export Plug-In . SVG Version: 6.00 Build 0)  -->
<svg version="1.1" xmlns="http://www.w3.org/2000/svg" xmlns:xlink="http://www.w3.org/1999/xlink" x="0px" y="0px"
	 viewBox="0 0 500 500" style="enable-background:new 0 0 500 500;" xml:space="preserve">
<g id="Background_Complete">
	<g>
		<g>
			<rect y="382.398" style="fill:#EBEBEB;" width="500" height="0.25"/>
			<path style="fill:#EBEBEB;" d="M237.014,337.8H43.915c-3.147,0-5.708-2.561-5.708-5.708V60.66c0-3.147,2.561-5.708,5.708-5.708
				h193.099c3.146,0,5.707,2.561,5.707,5.708v271.432C242.721,335.239,240.16,337.8,237.014,337.8z M43.915,55.203
				c-3.01,0-5.458,2.448-5.458,5.458v271.432c0,3.01,2.448,5.458,5.458,5.458h193.099c3.009,0,5.457-2.448,5.457-5.458V60.66
				c0-3.009-2.448-5.458-5.457-5.458H43.915z"/>
			<path style="fill:#EBEBEB;" d="M453.31,337.8H260.212c-3.147,0-5.707-2.561-5.707-5.708V60.66c0-3.147,2.561-5.708,5.707-5.708
				H453.31c3.148,0,5.708,2.561,5.708,5.708v271.432C459.019,335.239,456.458,337.8,453.31,337.8z M260.212,55.203
				c-3.009,0-5.457,2.448-5.457,5.458v271.432c0,3.01,2.448,5.458,5.457,5.458H453.31c3.01,0,5.458-2.448,5.458-5.458V60.66
				c0-3.009-2.448-5.458-5.458-5.458H260.212z"/>
		</g>
		<g>
			<rect x="51.279" y="391.922" style="fill:#EBEBEB;" width="25.997" height="0.25"/>
			<rect x="145.153" y="389.208" style="fill:#EBEBEB;" width="45.027" height="0.25"/>
			<rect x="78.277" y="401.208" style="fill:#EBEBEB;" width="60.792" height="0.25"/>
			<rect x="429.487" y="399.528" style="fill:#EBEBEB;" width="19.235" height="0.25"/>
			<rect x="365.291" y="399.528" style="fill:#EBEBEB;" width="55.292" height="0.25"/>
			<rect x="257.047" y="395.306" style="fill:#EBEBEB;" width="74.467" height="0.25"/>
		</g>
	</g>
	<g>
		<g>
			<path style="fill:#E6E6E6;" d="M190.832,215.44L178.178,382.4h121.98l12.653-166.96H190.832z M267.538,333.45
				c-1.032,13.62-12.909,24.66-26.529,24.66c-13.62,0-23.823-11.04-22.791-24.66l4.449-58.7c1.032-13.62,12.91-24.67,26.53-24.67
				c6.81,0,12.771,2.76,16.892,7.23c4.122,4.46,6.414,10.63,5.898,17.44L267.538,333.45z"/>
			<polygon style="fill:#E6E6E6;" points="338.875,382.398 161.005,382.398 162.03,371.444 339.9,371.444 			"/>
		</g>
		<g>
			<path style="fill:#E0E0E0;" d="M407.225,320.406h15.75c0.9,0,1.599-0.736,1.554-1.636l-0.056-1.118
				c-0.045-0.9-0.818-1.636-1.718-1.636h-15.75c-0.9,0-1.599,0.736-1.554,1.636l0.056,1.118
				C405.552,319.67,406.325,320.406,407.225,320.406z"/>
			<path style="fill:#E0E0E0;" d="M380.886,320.406h15.75c0.9,0,1.599-0.736,1.554-1.636l-0.056-1.118
				c-0.045-0.9-0.818-1.636-1.718-1.636h-15.75c-0.9,0-1.599,0.736-1.554,1.636l0.056,1.118
				C379.214,319.67,379.987,320.406,380.886,320.406z"/>
			<path style="fill:#E0E0E0;" d="M435.225,319.168H67.601c-4.24,0-7.849-3.437-8.062-7.677L48.473,90.673
				c-0.212-4.24,3.052-7.677,7.292-7.677H423.39c4.24,0,7.849,3.437,8.062,7.677l11.066,220.818
				C442.73,315.731,439.465,319.168,435.225,319.168z"/>
			<path style="fill:#E6E6E6;" d="M439.73,319.168H72.106c-4.24,0-7.849-3.437-8.062-7.677L52.978,90.673
				c-0.213-4.24,3.052-7.677,7.292-7.677h367.625c4.24,0,7.849,3.437,8.061,7.677l11.066,220.818
				C447.235,315.731,443.97,319.168,439.73,319.168z"/>
			<path style="fill:#F5F5F5;" d="M74.256,303.758L63.965,98.407c-0.133-2.657,1.913-4.811,4.57-4.811h352.157
				c2.657,0,4.919,2.154,5.052,4.811l10.291,205.35c0.133,2.657-1.913,4.811-4.57,4.811H79.308
				C76.651,308.568,74.389,306.415,74.256,303.758z"/>
			<path style="fill:#FFFFFF;" d="M85.663,104.103c0.118,2.35-1.692,4.256-4.043,4.256c-2.351,0-4.351-1.905-4.469-4.256
				c-0.118-2.351,1.692-4.256,4.043-4.256C83.544,99.847,85.545,101.752,85.663,104.103z"/>
			<path style="fill:#FFFFFF;" d="M104.935,104.103c0.118,2.35-1.692,4.256-4.043,4.256c-2.351,0-4.352-1.905-4.469-4.256
				c-0.118-2.351,1.692-4.256,4.043-4.256S104.817,101.752,104.935,104.103z"/>
			<path style="fill:#FFFFFF;" d="M124.207,104.103c0.118,2.35-1.692,4.256-4.043,4.256c-2.35,0-4.351-1.905-4.469-4.256
				c-0.118-2.351,1.692-4.256,4.043-4.256C122.088,99.847,124.089,101.752,124.207,104.103z"/>
			<g style="opacity:0.6;">
				<polygon style="fill:#FFFFFF;" points="110.875,308.568 161.625,308.568 208.025,93.596 157.275,93.596 				"/>
				<polygon style="fill:#FFFFFF;" points="329.284,308.568 342.129,308.568 388.529,93.596 375.684,93.596 				"/>
				<polygon style="fill:#FFFFFF;" points="172.908,308.568 244.911,308.568 291.311,93.596 219.308,93.596 				"/>
			</g>
		</g>
	</g>
</g>
<g id="Background_Simple" style="display:none;">
	<g style="display:inline;">
		<path style="fill:#407BFF;" d="M298.367,335.496c83.637-35.647,171.09-102.398,133.94-200.544
			c-33.704-89.045-147.572-109.25-212.692-32.53c-28.088,33.092-23.18,77.045-57.16,106.508
			c-33.968,29.452-90.398,45.834-75.127,103.968C110.973,402.912,243.33,358.953,298.367,335.496z"/>
		<path style="opacity:0.9;fill:#FFFFFF;" d="M298.367,335.496c83.637-35.647,171.09-102.398,133.94-200.544
			c-33.704-89.045-147.572-109.25-212.692-32.53c-28.088,33.092-23.18,77.045-57.16,106.508
			c-33.968,29.452-90.398,45.834-75.127,103.968C110.973,402.912,243.33,358.953,298.367,335.496z"/>
	</g>
</g>
<g id="Shadow_1_">
	<ellipse id="_x3C_Path_x3E__368_" style="fill:#F5F5F5;" cx="250" cy="416.238" rx="193.889" ry="11.323"/>
</g>
<g id="Character_1_">
	<g>
		<g>
			<path style="fill:#263238;" d="M360.602,263.054c-0.121,0-0.243-0.005-0.364-0.015c-26.633-2.18-44.968-24.947-45.735-25.915
				c-1.533-1.934-1.208-4.743,0.725-6.275c1.933-1.534,4.739-1.21,6.272,0.722c0.215,0.268,15.903,19.609,37.626,22.372
				c7.046-6.991,12.979-25.484,12.331-31.077c-0.006-0.052-0.011-0.104-0.015-0.156c-0.146-1.801-0.481-7.964,1.289-11.645
				c1.069-2.224,3.735-3.156,5.962-2.089c2.223,1.069,3.158,3.738,2.089,5.962c-0.442,0.919-0.649,4.237-0.44,6.992
				c0.994,9.202-6.982,32.423-17.003,40.187C362.552,262.727,361.589,263.054,360.602,263.054z"/>
			<path style="fill:#263238;" d="M148.824,238.821c-7.928,0-30.377-1.946-48.565-22.277c-1.415-1.582-1.521-3.94-0.256-5.643
				c7.215-9.707,19.96-32.641,21.946-40.114c-0.818-1.417-2.305-3.465-4.143-4.328c-1.424-0.669-2.392-2.038-2.546-3.603
				l-0.724-7.323c-0.243-2.455,1.551-4.642,4.006-4.885c2.452-0.243,4.642,1.55,4.885,4.006l0.503,5.091
				c4.365,3.13,6.539,8.015,6.805,8.644c0.302,0.713,0.415,1.491,0.325,2.26c-0.92,7.938-13.791,30.899-21.709,42.511
				c18.487,18.429,40.585,16.748,41.559,16.662c2.441-0.199,4.621,1.596,4.843,4.049c0.221,2.452-1.577,4.62-4.028,4.848
				C151.518,238.735,150.492,238.821,148.824,238.821z"/>
			<path style="fill:#263238;" d="M292.865,416.094h-11.97c-1.397,0-2.712-0.653-3.557-1.765c-0.845-1.112-1.121-2.555-0.747-3.9
				c3.129-11.238,4.665-20.384,5.815-34.706c-4.236-19.949-8.228-38.212-8.268-38.396c-0.527-2.41,0.999-4.791,3.409-5.317
				c2.414-0.525,4.791,1,5.317,3.409c0.041,0.186,4.123,18.861,8.415,39.084c0.09,0.42,0.117,0.85,0.084,1.278
				c-1.012,12.858-2.311,21.752-4.677,31.38h6.178c2.467,0,4.467,2,4.467,4.467C297.332,414.094,295.332,416.094,292.865,416.094z"
				/>
			<path style="fill:#263238;" d="M200.324,416.094h-6.76c-1.292,0-2.521-0.56-3.37-1.535c-0.849-0.975-1.233-2.27-1.054-3.549
				c1.145-8.203,7.039-23.135,13.295-38.144c2.232-19.8,4.057-36.8,4.075-36.971c0.263-2.453,2.461-4.238,4.918-3.965
				c2.453,0.264,4.228,2.465,3.965,4.918c-0.019,0.173-1.885,17.557-4.152,37.651c-0.047,0.419-0.154,0.83-0.316,1.22
				c-4.437,10.628-9.49,23.146-11.802,31.44h1.201c2.467,0,4.467,2,4.467,4.467C204.79,414.094,202.79,416.094,200.324,416.094z"/>
			<g>
				<path style="fill:#FFFFFF;" d="M204.212,110.98l-52.065,52.065c-2.62,57.715-2.405,118.331,0,181.187h172.163
					c-3.408-81.107-3.732-159.177,0-233.253H204.212z"/>
				<path style="fill:#263238;" d="M324.31,345.125H152.146c-0.479,0-0.874-0.379-0.892-0.858
					c-2.497-65.262-2.497-126.247,0.001-181.261c0.01-0.223,0.103-0.434,0.26-0.591l52.065-52.065
					c0.167-0.168,0.395-0.262,0.631-0.262H324.31c0.244,0,0.478,0.101,0.646,0.277c0.169,0.178,0.257,0.416,0.245,0.66
					c-3.595,71.345-3.595,147.615,0,233.17c0.011,0.242-0.079,0.479-0.247,0.655C324.785,345.025,324.553,345.125,324.31,345.125z
					 M153.006,343.34h170.373c-3.543-84.858-3.545-160.594-0.008-231.467h-118.79l-51.559,51.56
					C150.554,218.065,150.549,278.587,153.006,343.34z"/>
			</g>
			<g>
				<g>
					<path style="fill:#263238;" d="M202.854,287.404l1.876-0.164c0.125,0.755,0.363,1.375,0.712,1.858
						c0.349,0.483,0.874,0.875,1.575,1.174c0.7,0.298,1.48,0.447,2.338,0.447c0.762,0,1.429-0.113,2.001-0.339
						c0.573-0.227,0.992-0.538,1.258-0.932c0.266-0.395,0.388-0.825,0.365-1.293c-0.022-0.474-0.18-0.887-0.471-1.24
						c-0.292-0.353-0.759-0.651-1.402-0.891c-0.413-0.158-1.32-0.403-2.723-0.737c-1.402-0.332-2.388-0.646-2.958-0.941
						c-0.739-0.377-1.298-0.846-1.679-1.405c-0.38-0.56-0.587-1.186-0.62-1.88c-0.037-0.762,0.146-1.474,0.546-2.136
						c0.4-0.662,1.008-1.165,1.822-1.508c0.814-0.344,1.729-0.516,2.745-0.516c1.119,0,2.114,0.181,2.986,0.541
						c0.872,0.359,1.554,0.891,2.048,1.591c0.494,0.7,0.778,1.492,0.855,2.378l-1.908,0.145c-0.148-0.954-0.531-1.675-1.148-2.163
						c-0.617-0.486-1.505-0.73-2.666-0.73c-1.208,0-2.078,0.222-2.609,0.664c-0.532,0.443-0.782,0.977-0.752,1.602
						c0.026,0.542,0.243,0.987,0.651,1.338c0.401,0.351,1.422,0.709,3.064,1.076c1.641,0.367,2.77,0.689,3.387,0.963
						c0.898,0.405,1.571,0.918,2.02,1.539c0.448,0.621,0.692,1.337,0.73,2.147c0.038,0.803-0.155,1.56-0.581,2.271
						c-0.426,0.71-1.06,1.262-1.903,1.657c-0.842,0.395-1.803,0.592-2.88,0.592c-1.366,0-2.52-0.199-3.462-0.597
						c-0.942-0.398-1.695-0.997-2.259-1.797S202.93,288.414,202.854,287.404z"/>
					<path style="fill:#263238;" d="M224.91,288.732l1.926,0.237c-0.248,1.119-0.766,1.987-1.554,2.604
						c-0.787,0.618-1.816,0.927-3.086,0.927c-1.599,0-2.891-0.492-3.875-1.477c-0.984-0.985-1.519-2.366-1.603-4.145
						c-0.088-1.84,0.317-3.268,1.215-4.283c0.899-1.016,2.104-1.524,3.614-1.524c1.462,0,2.68,0.498,3.654,1.493
						c0.975,0.995,1.504,2.396,1.591,4.201c0.005,0.11,0.01,0.274,0.014,0.494h-8.154c0.125,1.201,0.509,2.121,1.151,2.759
						c0.642,0.639,1.419,0.958,2.332,0.958c0.68,0,1.251-0.179,1.714-0.536C224.312,290.085,224.665,289.516,224.91,288.732z
						 M218.682,285.736h6.105c-0.126-0.919-0.393-1.609-0.799-2.069c-0.624-0.714-1.407-1.07-2.347-1.07
						c-0.852,0-1.553,0.284-2.106,0.854C218.982,284.021,218.698,284.782,218.682,285.736z"/>
					<path style="fill:#263238;" d="M229.3,292.254l-0.523-10.935h1.668l0.08,1.658c0.388-0.776,0.756-1.287,1.105-1.534
						c0.349-0.247,0.739-0.371,1.172-0.371c0.624,0,1.268,0.199,1.934,0.598l-0.557,1.72c-0.466-0.268-0.925-0.402-1.378-0.402
						c-0.405,0-0.763,0.122-1.074,0.366c-0.311,0.243-0.524,0.581-0.641,1.015c-0.174,0.658-0.243,1.379-0.206,2.161l0.274,5.725
						H229.3z"/>
					<path style="fill:#263238;" d="M239.38,292.254l-4.683-10.935h1.957l2.661,6.548c0.287,0.708,0.556,1.442,0.805,2.204
						c0.138-0.576,0.334-1.27,0.59-2.08l2.111-6.672h1.905l-3.616,10.935H239.38z"/>
					<path style="fill:#263238;" d="M246.276,279.291l-0.102-2.131h1.853l0.102,2.131H246.276z M246.896,292.254l-0.523-10.935
						h1.853l0.523,10.935H246.896z"/>
					<path style="fill:#263238;" d="M258.515,288.249l1.834,0.237c-0.14,1.255-0.602,2.239-1.388,2.949
						c-0.787,0.71-1.777,1.066-2.972,1.066c-1.496,0-2.723-0.488-3.679-1.467c-0.956-0.979-1.479-2.38-1.566-4.206
						c-0.057-1.181,0.09-2.214,0.439-3.1c0.349-0.886,0.913-1.549,1.69-1.991c0.779-0.443,1.639-0.665,2.579-0.665
						c1.188,0,2.173,0.301,2.956,0.9c0.784,0.602,1.309,1.455,1.575,2.559l-1.789,0.278c-0.207-0.733-0.537-1.286-0.99-1.657
						c-0.454-0.371-0.989-0.556-1.607-0.556c-0.934,0-1.676,0.334-2.228,1.003c-0.552,0.67-0.792,1.728-0.723,3.178
						c0.07,1.468,0.402,2.536,0.997,3.201c0.595,0.666,1.346,0.999,2.252,0.999c0.727,0,1.324-0.223,1.79-0.669
						C258.152,289.862,258.429,289.176,258.515,288.249z"/>
					<path style="fill:#263238;" d="M269.432,288.732l1.927,0.237c-0.249,1.119-0.767,1.987-1.554,2.604
						c-0.787,0.618-1.816,0.927-3.086,0.927c-1.6,0-2.892-0.492-3.875-1.477c-0.984-0.985-1.518-2.366-1.603-4.145
						c-0.089-1.84,0.316-3.268,1.215-4.283c0.898-1.016,2.103-1.524,3.613-1.524c1.462,0,2.681,0.498,3.655,1.493
						c0.974,0.995,1.504,2.396,1.591,4.201c0.005,0.11,0.01,0.274,0.013,0.494h-8.154c0.126,1.201,0.51,2.121,1.151,2.759
						c0.642,0.639,1.419,0.958,2.331,0.958c0.68,0,1.252-0.179,1.715-0.536C268.834,290.085,269.188,289.516,269.432,288.732z
						 M263.203,285.736h6.105c-0.127-0.919-0.393-1.609-0.799-2.069c-0.625-0.714-1.407-1.07-2.348-1.07
						c-0.852,0-1.553,0.284-2.105,0.854C263.503,284.021,263.219,284.782,263.203,285.736z"/>
					<path style="fill:#263238;" d="M193.516,313.341l-0.077-1.606c-0.792,1.235-1.919,1.853-3.381,1.853
						c-0.646,0-1.253-0.122-1.825-0.37c-0.571-0.247-1.001-0.558-1.29-0.932c-0.29-0.374-0.502-0.832-0.638-1.374
						c-0.093-0.364-0.158-0.94-0.196-1.729l-0.324-6.776h1.854l0.29,6.064c0.046,0.969,0.115,1.62,0.207,1.957
						c0.14,0.488,0.406,0.87,0.796,1.148c0.391,0.277,0.864,0.416,1.421,0.416c0.556,0,1.071-0.143,1.544-0.427
						c0.474-0.285,0.8-0.672,0.979-1.164c0.179-0.49,0.246-1.202,0.201-2.136l-0.28-5.859h1.854l0.523,10.935H193.516z"/>
					<path style="fill:#263238;" d="M198.077,313.341l-0.523-10.935h1.668l0.075,1.556c0.746-1.201,1.876-1.802,3.393-1.802
						c0.659,0,1.271,0.118,1.835,0.354c0.564,0.237,0.992,0.548,1.285,0.932c0.293,0.385,0.507,0.841,0.642,1.37
						c0.085,0.343,0.148,0.944,0.189,1.802l0.322,6.724h-1.854l-0.318-6.652c-0.036-0.755-0.135-1.319-0.297-1.693
						c-0.162-0.374-0.432-0.673-0.81-0.895c-0.378-0.223-0.814-0.335-1.308-0.335c-0.79,0-1.458,0.251-2.008,0.752
						s-0.791,1.451-0.723,2.853l0.286,5.972H198.077z"/>
					<path style="fill:#263238;" d="M216.876,311.991c-0.659,0.584-1.3,0.996-1.923,1.236c-0.624,0.24-1.299,0.359-2.027,0.359
						c-1.201,0-2.138-0.292-2.811-0.88c-0.674-0.587-1.032-1.337-1.076-2.25c-0.025-0.534,0.073-1.024,0.296-1.467
						c0.222-0.443,0.524-0.798,0.906-1.065c0.382-0.268,0.817-0.47,1.305-0.607c0.359-0.096,0.903-0.189,1.634-0.278
						c1.488-0.179,2.579-0.391,3.275-0.638c-0.006-0.255-0.01-0.416-0.013-0.484c-0.036-0.755-0.237-1.287-0.602-1.597
						c-0.494-0.418-1.208-0.627-2.141-0.627c-0.872,0-1.508,0.152-1.908,0.457c-0.401,0.307-0.682,0.847-0.844,1.623l-1.824-0.248
						c0.127-0.775,0.369-1.402,0.724-1.879c0.355-0.477,0.883-0.844,1.585-1.102c0.702-0.257,1.522-0.386,2.463-0.386
						c0.933,0,1.697,0.109,2.291,0.329c0.594,0.22,1.036,0.496,1.327,0.828c0.29,0.334,0.502,0.755,0.637,1.262
						c0.077,0.316,0.135,0.886,0.174,1.71l0.118,2.471c0.083,1.723,0.174,2.813,0.275,3.269c0.101,0.457,0.278,0.895,0.531,1.313
						h-1.936C217.1,312.956,216.955,312.507,216.876,311.991z M216.523,307.853c-0.66,0.275-1.658,0.509-2.994,0.7
						c-0.756,0.109-1.29,0.233-1.599,0.371c-0.309,0.138-0.544,0.337-0.702,0.602c-0.159,0.265-0.23,0.558-0.215,0.881
						c0.024,0.494,0.23,0.906,0.621,1.235c0.39,0.329,0.945,0.494,1.666,0.494c0.714,0,1.341-0.156,1.882-0.468
						c0.541-0.313,0.929-0.739,1.164-1.282c0.179-0.419,0.249-1.037,0.21-1.854L216.523,307.853z"/>
					<path style="fill:#263238;" d="M224.569,313.341l-4.683-10.935h1.957l2.661,6.549c0.287,0.707,0.556,1.441,0.805,2.203
						c0.138-0.576,0.334-1.27,0.59-2.079l2.111-6.673h1.905l-3.616,10.935H224.569z"/>
					<path style="fill:#263238;" d="M239.146,311.991c-0.659,0.584-1.3,0.996-1.923,1.236c-0.624,0.24-1.299,0.359-2.027,0.359
						c-1.201,0-2.139-0.292-2.811-0.88c-0.674-0.587-1.032-1.337-1.076-2.25c-0.025-0.534,0.073-1.024,0.296-1.467
						c0.222-0.443,0.524-0.798,0.906-1.065c0.382-0.268,0.817-0.47,1.305-0.607c0.359-0.096,0.903-0.189,1.634-0.278
						c1.488-0.179,2.579-0.391,3.275-0.638c-0.006-0.255-0.01-0.416-0.013-0.484c-0.036-0.755-0.237-1.287-0.602-1.597
						c-0.494-0.418-1.208-0.627-2.141-0.627c-0.872,0-1.508,0.152-1.908,0.457c-0.401,0.307-0.682,0.847-0.844,1.623l-1.824-0.248
						c0.127-0.775,0.369-1.402,0.724-1.879c0.355-0.477,0.883-0.844,1.585-1.102c0.702-0.257,1.522-0.386,2.463-0.386
						c0.933,0,1.697,0.109,2.291,0.329c0.594,0.22,1.036,0.496,1.327,0.828c0.29,0.334,0.502,0.755,0.637,1.262
						c0.077,0.316,0.135,0.886,0.174,1.71l0.118,2.471c0.083,1.723,0.174,2.813,0.275,3.269c0.101,0.457,0.278,0.895,0.531,1.313
						h-1.936C239.371,312.956,239.226,312.507,239.146,311.991z M238.794,307.853c-0.66,0.275-1.658,0.509-2.994,0.7
						c-0.757,0.109-1.29,0.233-1.599,0.371c-0.309,0.138-0.544,0.337-0.702,0.602c-0.159,0.265-0.23,0.558-0.215,0.881
						c0.024,0.494,0.23,0.906,0.62,1.235c0.39,0.329,0.946,0.494,1.667,0.494c0.714,0,1.341-0.156,1.882-0.468
						c0.541-0.313,0.929-0.739,1.164-1.282c0.179-0.419,0.25-1.037,0.211-1.854L238.794,307.853z"/>
					<path style="fill:#263238;" d="M243.193,300.378l-0.102-2.132h1.853l0.102,2.132H243.193z M243.814,313.341l-0.524-10.935
						h1.853l0.523,10.935H243.814z"/>
					<path style="fill:#263238;" d="M248.446,313.341l-0.723-15.095h1.854l0.723,15.095H248.446z"/>
					<path style="fill:#263238;" d="M260.243,311.991c-0.658,0.584-1.3,0.996-1.923,1.236c-0.623,0.24-1.299,0.359-2.026,0.359
						c-1.201,0-2.139-0.292-2.812-0.88c-0.674-0.587-1.032-1.337-1.076-2.25c-0.025-0.534,0.073-1.024,0.296-1.467
						c0.222-0.443,0.524-0.798,0.906-1.065c0.382-0.268,0.816-0.47,1.305-0.607c0.358-0.096,0.903-0.189,1.634-0.278
						c1.487-0.179,2.579-0.391,3.274-0.638c-0.006-0.255-0.009-0.416-0.013-0.484c-0.036-0.755-0.236-1.287-0.602-1.597
						c-0.494-0.418-1.208-0.627-2.142-0.627c-0.871,0-1.508,0.152-1.908,0.457c-0.4,0.307-0.682,0.847-0.844,1.623l-1.824-0.248
						c0.128-0.775,0.369-1.402,0.724-1.879c0.354-0.477,0.883-0.844,1.585-1.102c0.701-0.257,1.522-0.386,2.463-0.386
						c0.933,0,1.697,0.109,2.291,0.329c0.594,0.22,1.036,0.496,1.327,0.828c0.29,0.334,0.502,0.755,0.637,1.262
						c0.077,0.316,0.135,0.886,0.174,1.71l0.118,2.471c0.083,1.723,0.175,2.813,0.275,3.269c0.101,0.457,0.278,0.895,0.531,1.313
						h-1.936C260.468,312.956,260.323,312.507,260.243,311.991z M259.892,307.853c-0.66,0.275-1.658,0.509-2.994,0.7
						c-0.757,0.109-1.29,0.233-1.6,0.371c-0.309,0.138-0.543,0.337-0.702,0.602c-0.158,0.265-0.23,0.558-0.215,0.881
						c0.023,0.494,0.23,0.906,0.62,1.235c0.39,0.329,0.945,0.494,1.666,0.494c0.714,0,1.342-0.156,1.883-0.468
						c0.541-0.313,0.929-0.739,1.164-1.282c0.179-0.419,0.249-1.037,0.21-1.854L259.892,307.853z"/>
					<path style="fill:#263238;" d="M266.609,313.341h-1.719l-0.723-15.095h1.853l0.258,5.385c0.735-0.981,1.711-1.472,2.926-1.472
						c0.673,0,1.316,0.136,1.93,0.406c0.613,0.272,1.126,0.652,1.537,1.143c0.411,0.491,0.743,1.084,0.996,1.776
						c0.253,0.693,0.398,1.435,0.436,2.224c0.09,1.874-0.305,3.322-1.183,4.346c-0.877,1.022-1.965,1.533-3.262,1.533
						c-1.291,0-2.329-0.538-3.115-1.616L266.609,313.341z M266.323,307.791c0.063,1.312,0.286,2.259,0.671,2.842
						c0.63,0.954,1.441,1.431,2.437,1.431c0.811,0,1.494-0.351,2.051-1.056c0.557-0.703,0.802-1.752,0.735-3.145
						c-0.068-1.428-0.402-2.482-1.001-3.161c-0.6-0.68-1.3-1.02-2.103-1.02c-0.81,0-1.493,0.353-2.05,1.056
						C266.506,305.441,266.26,306.46,266.323,307.791z"/>
					<path style="fill:#263238;" d="M276.586,313.341l-0.722-15.095h1.854l0.722,15.095H276.586z"/>
					<path style="fill:#263238;" d="M288.629,309.819l1.927,0.237c-0.249,1.118-0.767,1.986-1.554,2.604
						c-0.787,0.619-1.816,0.927-3.086,0.927c-1.599,0-2.891-0.492-3.875-1.477c-0.984-0.985-1.518-2.366-1.603-4.145
						c-0.088-1.84,0.316-3.267,1.216-4.283c0.898-1.016,2.103-1.523,3.613-1.523c1.462,0,2.68,0.497,3.654,1.492
						c0.975,0.996,1.505,2.396,1.591,4.201c0.005,0.11,0.01,0.275,0.014,0.495h-8.154c0.126,1.2,0.51,2.12,1.15,2.758
						c0.642,0.64,1.419,0.958,2.332,0.958c0.68,0,1.251-0.179,1.715-0.535C288.031,311.171,288.385,310.602,288.629,309.819z
						 M282.401,306.822h6.105c-0.127-0.919-0.393-1.609-0.8-2.068c-0.624-0.714-1.406-1.071-2.347-1.071
						c-0.852,0-1.554,0.285-2.107,0.855S282.417,305.868,282.401,306.822z"/>
				</g>
			</g>
			<path style="fill:#407BFF;" d="M293.439,319.461h-18.776c-0.369,0-0.668-0.299-0.668-0.668c0-0.369,0.299-0.668,0.668-0.668
				h18.776c0.369,0,0.668,0.299,0.668,0.668C294.106,319.162,293.808,319.461,293.439,319.461z"/>
			<path style="fill:#407BFF;" d="M266.885,319.461h-83.868c-0.369,0-0.668-0.299-0.668-0.668c0-0.369,0.299-0.668,0.668-0.668
				h83.868c0.369,0,0.668,0.299,0.668,0.668C267.553,319.162,267.254,319.461,266.885,319.461z"/>
			<g>
				<path style="fill:#407BFF;" d="M214.279,219.185c-0.197-4.353-2.673-7.799-5.531-7.696c-2.857,0.103-5.014,3.715-4.816,8.068
					c0.197,4.353,2.673,7.799,5.531,7.696C212.32,227.15,214.476,223.538,214.279,219.185z"/>
				<path style="fill:#407BFF;" d="M274.65,217.825c-0.197-4.353-2.673-7.799-5.531-7.696c-2.857,0.103-5.014,3.715-4.817,8.069
					c0.197,4.354,2.673,7.799,5.531,7.696C272.69,225.791,274.847,222.178,274.65,217.825z"/>
				<path style="fill:#407BFF;" d="M229.349,237.029c15.83-5.651,28.06,0.988,28.626,1.304c0.62,0.346,0.84,1.122,0.493,1.736
					c-0.347,0.613-1.132,0.831-1.752,0.488c-0.142-0.078-14.394-7.76-31.407,1.015c-0.632,0.322-1.409,0.082-1.739-0.543
					c-0.33-0.625-0.086-1.395,0.544-1.72C225.895,238.39,227.643,237.638,229.349,237.029z"/>
				<path style="fill:#407BFF;" d="M205.641,178.339c0.428,0.01,0.86,0.127,1.256,0.361c1.225,0.724,1.637,2.293,0.919,3.506
					c-7.189,12.146-19.04,12.747-19.541,12.766c-1.421,0.057-2.623-1.043-2.691-2.454c-0.067-1.406,1.021-2.592,2.433-2.655l0,0
					c0.39-0.02,9.624-0.585,15.361-10.278C203.864,178.764,204.743,178.318,205.641,178.339z"/>
				<path style="fill:#407BFF;" d="M266.053,176.872c0.817-0.158,1.698,0.081,2.331,0.714c8.032,8.031,17.137,6.395,17.52,6.322
					c1.388-0.266,2.747,0.631,3.032,2.01c0.285,1.379-0.597,2.718-1.983,2.999c-0.504,0.09-12.145,2.318-22.209-7.743
					c-1.005-1.005-1.005-2.622,0.001-3.613C265.116,177.194,265.573,176.964,266.053,176.872z"/>
			</g>
			<path style="opacity:0.2;" d="M321.717,204.858l-7.302,0.685c-2.618,0.246-5.009-1.494-5.582-4.06l-10.13-45.381
				c-0.612-2.74,1.054-5.473,3.769-6.186l19.59-5.141L321.717,204.858z"/>
			<path style="opacity:0.2;" d="M209.016,167.693c-5.09-13.898-10.179-36.128-4.804-56.713l-52.065,52.065
				C166.859,167.968,190.319,170.111,209.016,167.693z"/>
			<g>
				<path style="fill:#FFFFFF;" d="M204.212,163.046c-5.708-16.859-3.381-39.779,0-52.065l-52.065,52.065
					C167.91,165.915,185.516,165.464,204.212,163.046z"/>
				<path style="fill:#263238;" d="M175.956,165.925c-8.692,0-16.64-0.667-23.969-2.001c-0.327-0.059-0.593-0.295-0.692-0.612
					c-0.099-0.316-0.014-0.662,0.221-0.896l52.065-52.065c0.287-0.287,0.73-0.344,1.08-0.141c0.35,0.204,0.52,0.618,0.412,1.008
					c-3.147,11.44-5.749,34.605-0.015,51.543c0.086,0.253,0.054,0.531-0.088,0.759c-0.142,0.227-0.377,0.378-0.643,0.412
					C194.049,165.26,184.632,165.925,175.956,165.925z M153.994,162.461c13.832,2.292,29.904,2.238,49.035-0.164
					c-4.706-14.933-3.643-34.702-0.474-48.397L153.994,162.461z"/>
			</g>
		</g>
		<g>
			<path style="fill:#263238;" d="M383.104,239.114c-0.662,0-1.268-0.444-1.443-1.115l-18.337-69.879
				c-0.21-0.798,0.268-1.614,1.065-1.823c0.801-0.212,1.614,0.268,1.823,1.065l18.337,69.879c0.21,0.798-0.268,1.614-1.065,1.823
				C383.357,239.099,383.229,239.114,383.104,239.114z"/>
			
				<rect x="416.346" y="136.803" transform="matrix(0.9673 -0.2538 0.2538 0.9673 -21.7715 110.3701)" style="fill:#407BFF;" width="1" height="5.512"/>
			<path style="fill:#407BFF;" d="M414.108,131.094l-3.852-14.679c-0.893-3.402-3.971-5.778-7.485-5.778
				c-0.663,0-1.325,0.086-1.967,0.255l-10.07,2.643l-0.254-0.967l10.069-2.643c0.725-0.191,1.473-0.288,2.222-0.288
				c3.969,0,7.444,2.683,8.452,6.524l3.852,14.679L414.108,131.094z"/>
			<path style="fill:#407BFF;" d="M416.165,169.436l-95.339,25.018c-2.8,0.735-5.666-0.939-6.4-3.74l-12.067-45.986
				c-0.735-2.8,0.94-5.666,3.74-6.4l95.339-25.018c2.8-0.735,5.666,0.939,6.4,3.74l12.067,45.986
				C420.64,165.836,418.966,168.702,416.165,169.436z"/>
			<path style="fill:#407BFF;" d="M403.125,191.404l-60.153,15.785c-2.8,0.735-5.666-0.939-6.4-3.74l-3.771-14.37
				c-0.735-2.8,0.939-5.666,3.739-6.4l60.153-15.785c2.8-0.735,5.666,0.939,6.4,3.74l3.771,14.37
				C407.6,187.803,405.926,190.669,403.125,191.404z"/>
			<g>
				<g>
					<path style="fill:#FFFFFF;" d="M342.152,187.94l8.228-2.139l0.551,2.121l-5.15,1.339l0.41,1.579l4.778-1.242l0.527,2.027
						l-4.778,1.242l0.51,1.959l5.299-1.378l0.585,2.25l-8.377,2.179L342.152,187.94z"/>
					<path style="fill:#FFFFFF;" d="M354.807,195.257l-2.584-9.936l5.117-1.331c0.949-0.246,1.695-0.354,2.24-0.322
						c0.544,0.032,1.026,0.229,1.448,0.589c0.422,0.361,0.715,0.858,0.88,1.49c0.143,0.551,0.149,1.057,0.018,1.518
						c-0.131,0.462-0.371,0.87-0.718,1.225c-0.221,0.227-0.546,0.45-0.975,0.674c0.397,0.027,0.695,0.079,0.894,0.158
						c0.134,0.053,0.343,0.184,0.627,0.395c0.284,0.211,0.48,0.379,0.591,0.506l2.235,2.492l-3.469,0.902l-2.43-2.609
						c-0.311-0.339-0.562-0.547-0.756-0.621c-0.262-0.096-0.532-0.108-0.812-0.035l-0.271,0.07l1.049,4.033L354.807,195.257z
						 M356.354,188.545l1.295-0.337c0.139-0.036,0.398-0.153,0.777-0.346c0.193-0.095,0.333-0.242,0.417-0.443
						c0.086-0.199,0.1-0.408,0.044-0.625c-0.084-0.321-0.249-0.541-0.497-0.66c-0.248-0.118-0.653-0.104-1.213,0.041l-1.349,0.351
						L356.354,188.545z"/>
					<path style="fill:#FFFFFF;" d="M365.603,192.448l-2.584-9.935l5.117-1.331c0.949-0.247,1.695-0.355,2.24-0.323
						c0.544,0.033,1.027,0.229,1.448,0.59c0.422,0.36,0.715,0.858,0.88,1.49c0.143,0.55,0.149,1.057,0.018,1.518
						c-0.131,0.462-0.37,0.869-0.718,1.224c-0.221,0.227-0.546,0.45-0.975,0.675c0.397,0.027,0.695,0.078,0.895,0.158
						c0.134,0.053,0.343,0.184,0.626,0.394c0.284,0.212,0.48,0.38,0.591,0.506l2.235,2.493l-3.469,0.901l-2.43-2.609
						c-0.31-0.339-0.562-0.546-0.756-0.621c-0.261-0.096-0.532-0.108-0.812-0.035l-0.271,0.071l1.049,4.033L365.603,192.448z
						 M367.15,185.737l1.295-0.338c0.139-0.036,0.399-0.152,0.777-0.346c0.193-0.094,0.333-0.242,0.417-0.443
						c0.086-0.2,0.1-0.409,0.044-0.626c-0.084-0.321-0.249-0.541-0.497-0.659c-0.248-0.119-0.652-0.105-1.213,0.041l-1.349,0.351
						L367.15,185.737z"/>
					<path style="fill:#FFFFFF;" d="M374.446,184.852c-0.422-1.622-0.299-3.003,0.37-4.142c0.668-1.138,1.809-1.918,3.422-2.338
						c1.654-0.43,3.044-0.317,4.169,0.338c1.125,0.654,1.896,1.783,2.313,3.381c0.301,1.161,0.354,2.166,0.157,3.01
						c-0.198,0.845-0.612,1.571-1.244,2.175c-0.631,0.606-1.498,1.052-2.6,1.339c-1.12,0.292-2.095,0.354-2.921,0.188
						c-0.827-0.166-1.569-0.575-2.227-1.229C375.228,186.922,374.748,186.014,374.446,184.852z M377.52,184.067
						c0.261,1.004,0.634,1.676,1.121,2.016c0.486,0.341,1.051,0.43,1.693,0.262c0.659-0.171,1.115-0.519,1.363-1.041
						c0.25-0.524,0.23-1.342-0.058-2.453c-0.243-0.936-0.61-1.57-1.099-1.903c-0.49-0.334-1.058-0.417-1.704-0.249
						c-0.62,0.161-1.059,0.51-1.32,1.046C377.255,182.28,377.256,183.056,377.52,184.067z"/>
					<path style="fill:#FFFFFF;" d="M387.726,186.695l-2.584-9.936l5.117-1.33c0.948-0.247,1.694-0.355,2.239-0.323
						c0.545,0.033,1.027,0.229,1.449,0.589c0.422,0.361,0.714,0.858,0.879,1.49c0.143,0.551,0.149,1.057,0.018,1.518
						c-0.131,0.462-0.371,0.87-0.717,1.225c-0.222,0.227-0.547,0.45-0.976,0.674c0.398,0.027,0.695,0.079,0.895,0.158
						c0.134,0.053,0.343,0.184,0.626,0.395c0.284,0.212,0.481,0.379,0.591,0.506l2.235,2.492l-3.468,0.903l-2.431-2.609
						c-0.31-0.339-0.562-0.546-0.755-0.621c-0.262-0.096-0.533-0.108-0.813-0.035l-0.27,0.07l1.048,4.033L387.726,186.695z
						 M389.273,179.983l1.294-0.337c0.14-0.036,0.399-0.153,0.778-0.346c0.193-0.095,0.332-0.242,0.417-0.443
						c0.085-0.199,0.099-0.408,0.043-0.625c-0.084-0.321-0.249-0.541-0.497-0.66c-0.248-0.118-0.652-0.104-1.213,0.042l-1.348,0.35
						L389.273,179.983z"/>
				</g>
			</g>
			<g>
				<g>
					<path style="fill:#FFFFFF;" d="M318.736,148.236l20.7-5.432l1.826,6.957l-14.021,3.679l0.487,4.906
						c0.85-0.711,1.72-1.306,2.609-1.783c0.889-0.477,1.797-0.838,2.725-1.081c3.139-0.824,5.936-0.543,8.389,0.842
						c2.453,1.385,4.058,3.519,4.814,6.401c0.532,2.026,0.54,4.106,0.024,6.24s-1.568,3.935-3.158,5.405
						c-1.59,1.47-3.826,2.583-6.708,3.339c-2.069,0.543-3.894,0.812-5.474,0.807c-1.58-0.005-2.989-0.26-4.228-0.767
						s-2.308-1.167-3.209-1.984c-0.9-0.816-1.758-1.903-2.571-3.261l8.566-3.277c0.585,1.357,1.366,2.299,2.344,2.828
						c0.978,0.529,2.009,0.651,3.093,0.367c1.213-0.318,2.095-1.042,2.645-2.17s0.586-2.606,0.107-4.432
						c-0.49-1.869-1.25-3.135-2.277-3.795s-2.205-0.817-3.532-0.469c-0.842,0.221-1.601,0.641-2.277,1.261
						c-0.507,0.453-1.006,1.164-1.5,2.132l-7.709,0.879L318.736,148.236z"/>
					<path style="fill:#FFFFFF;" d="M348.529,157.052c-1.565-5.965-1.587-10.421-0.064-13.368c1.522-2.947,4.481-4.997,8.877-6.15
						c2.112-0.554,3.914-0.749,5.407-0.584c1.492,0.165,2.776,0.553,3.852,1.163c1.075,0.61,1.98,1.311,2.714,2.102
						c0.734,0.791,1.412,1.761,2.033,2.91c1.199,2.187,2.132,4.55,2.799,7.091c1.494,5.694,1.624,10.114,0.391,13.259
						c-1.234,3.146-4.205,5.336-8.915,6.572c-2.64,0.693-4.884,0.832-6.732,0.417c-1.848-0.415-3.506-1.299-4.975-2.653
						c-1.06-0.958-2.063-2.383-3.01-4.278C349.957,161.638,349.165,159.478,348.529,157.052z M357.182,154.804
						c1.049,3.996,2.118,6.632,3.208,7.91c1.09,1.277,2.306,1.74,3.648,1.388c0.885-0.232,1.57-0.744,2.057-1.535
						c0.486-0.791,0.707-1.898,0.662-3.32c-0.045-1.422-0.44-3.553-1.186-6.393c-1.093-4.167-2.181-6.875-3.264-8.124
						c-1.083-1.249-2.331-1.688-3.743-1.317c-1.441,0.378-2.291,1.383-2.549,3.014C355.755,148.059,356.145,150.851,357.182,154.804
						z"/>
					<path style="fill:#FFFFFF;" d="M384.523,140.674l-8.629,0.686c-0.004-2.805,0.784-5.163,2.365-7.073
						c1.581-1.91,4.155-3.333,7.723-4.269c4.096-1.075,7.257-1.088,9.485-0.041c2.227,1.048,3.644,2.727,4.251,5.039
						c0.356,1.356,0.307,2.68-0.147,3.974c-0.454,1.294-1.321,2.551-2.602,3.772c1.292-0.019,2.311,0.088,3.058,0.319
						c1.21,0.369,2.242,1.002,3.095,1.899c0.853,0.897,1.471,2.074,1.853,3.529c0.479,1.827,0.461,3.704-0.055,5.632
						c-0.516,1.928-1.554,3.581-3.115,4.959c-1.56,1.378-3.803,2.451-6.729,3.219c-2.854,0.749-5.193,1.004-7.018,0.766
						c-1.824-0.238-3.437-0.864-4.839-1.876c-1.402-1.012-2.645-2.421-3.729-4.227l8.409-3.442c0.803,1.665,1.654,2.742,2.552,3.231
						c0.899,0.489,1.904,0.587,3.018,0.295c1.17-0.307,2.032-0.991,2.585-2.051c0.553-1.06,0.642-2.304,0.268-3.731
						c-0.382-1.456-1.052-2.485-2.011-3.087s-2.081-0.735-3.365-0.398c-0.685,0.18-1.582,0.598-2.691,1.255l-1.185-6.347
						c0.504-0.056,0.892-0.119,1.163-0.191c1.142-0.3,1.999-0.913,2.571-1.842c0.572-0.928,0.728-1.892,0.465-2.891
						c-0.251-0.956-0.737-1.645-1.457-2.066c-0.721-0.421-1.58-0.501-2.579-0.238c-1.027,0.27-1.781,0.799-2.26,1.588
						C384.492,137.856,384.343,139.059,384.523,140.674z"/>
				</g>
			</g>
		</g>
	</g>
</g>
</svg>
