<?xml version="1.0" encoding="utf-8"?>
<!-- Generator: Adobe Illustrator 27.5.0, SVG Export Plug-In . SVG Version: 6.00 Build 0)  -->
<svg version="1.1" xmlns="http://www.w3.org/2000/svg" xmlns:xlink="http://www.w3.org/1999/xlink" x="0px" y="0px"
	 viewBox="0 0 500 500" style="enable-background:new 0 0 500 500;" xml:space="preserve">
<g id="BACKGROUND">
	<rect style="fill:#FFFFFF;" width="500" height="500"/>
</g>
<g id="OBJECTS">
	<g>
		<g>
			<path style="fill:none;stroke:#BFC4D8;stroke-width:0.9599;stroke-miterlimit:10;" d="M143.218,123.592
				c0.037-0.556,0.062-1.115,0.062-1.681c0-13.823-11.206-25.029-25.029-25.029c-5.902,0-11.323,2.048-15.602,5.465
				C99.612,91.946,90.01,84.345,78.628,84.345c-13.823,0-25.029,11.206-25.029,25.029c0,1.4,0.121,2.772,0.342,4.109
				c-9.888,3.344-17.009,12.692-17.009,23.709c0,13.607,10.859,24.669,24.383,25.013l0.006,0.016l79.104,1.85
				c11.232,0,20.338-9.105,20.338-20.338C160.761,133.45,153.127,124.955,143.218,123.592z"/>
			<path style="fill:none;stroke:#BFC4D8;stroke-width:0.7558;stroke-miterlimit:10;" d="M440.427,184.839
				c0.029-0.438,0.049-0.878,0.049-1.323c0-10.885-8.824-19.709-19.709-19.709c-4.648,0-8.916,1.613-12.286,4.303
				c-2.392-8.19-9.953-14.176-18.916-14.176c-10.885,0-19.709,8.824-19.709,19.709c0,1.102,0.095,2.183,0.269,3.236
				c-7.786,2.633-13.394,9.994-13.394,18.669c0,10.714,8.551,19.425,19.2,19.696l0.004,0.013l62.29,1.456
				c8.845,0,16.015-7.17,16.015-16.014C454.241,192.602,448.23,185.913,440.427,184.839z"/>
			<path style="fill:#E1E5F2;" d="M251.519,52.599c0.013-0.192,0.021-0.385,0.021-0.58c0-4.774-3.87-8.644-8.644-8.644
				c-2.039,0-3.911,0.707-5.389,1.887c-1.049-3.592-4.365-6.218-8.297-6.218c-4.774,0-8.645,3.87-8.645,8.645
				c0,0.484,0.042,0.957,0.118,1.419c-3.415,1.155-5.875,4.383-5.875,8.188c0,4.699,3.751,8.52,8.421,8.639l0.002,0.006
				l27.321,0.639c3.879,0,7.024-3.145,7.024-7.024C257.578,56.004,254.941,53.069,251.519,52.599z"/>
		</g>
		<path style="fill:#FDEEEA;" d="M344.682,446.282c14.397,3.615,29.473,3.544,43.793-0.364
			c40.615-11.085,108.659-40.435,65.947-107.24c-58.893-92.114-159.14-97.58-134.101-161.011
			c25.039-63.431,23.181-112.765-89.314-89.552c-112.495,23.212-98.104,97.666-155.832,148.779
			c-57.728,51.114-49.794,188.557-1.774,193.634c48.019,5.077,46.187,59.608,135.08,26.162
			C270.139,433.491,319.949,440.072,344.682,446.282z"/>
		<g>
			<g>
				<path style="fill:#4DBEAF;" d="M65.426,315.728c-6.093-2.35-30.714-13.342-33.407-38.349c-0.231-2.152,1.163-4.158,3.247-4.741
					l2.186-0.611c2.376-0.664,3.768-3.125,3.089-5.497c-3.471-12.116-11.337-45.945,8.588-47.273
					c19.309-1.287,24.658,28.82,26.039,41.224c0.304,2.724,2.984,4.513,5.624,3.775l0,0c2.652-0.741,5.325,1.07,5.629,3.807
					c1.352,12.164,2.441,41.982-18.289,47.821C67.241,316.135,66.289,316.062,65.426,315.728z"/>
				<path style="fill:none;stroke:#1F2641;stroke-width:0.459;stroke-miterlimit:10;" d="M49.918,230.815
					c0,0-0.175,33.865,27.983,109.621"/>
			</g>
			<g>
				<path style="fill:#4DBEAF;" d="M394.468,319.776c-4.108-5.077-19.959-26.889-9.814-49.904c0.873-1.98,3.083-3.023,5.18-2.488
					l2.2,0.561c2.39,0.61,4.824-0.828,5.419-3.222c3.038-12.232,13.101-45.473,31.032-36.682c17.375,8.519,6.987,37.28,1.995,48.718
					c-1.096,2.512,0.334,5.4,2.99,6.078l0,0c2.668,0.681,4.081,3.584,2.979,6.108c-4.898,11.216-18.834,37.6-39.712,32.316
					C395.838,321.034,395.05,320.495,394.468,319.776z"/>
				<path style="fill:none;stroke:#1F2641;stroke-width:0.459;stroke-miterlimit:10;" d="M423.401,238.451
					c0,0-17.05,29.26-30.451,108.961"/>
			</g>
		</g>
		<g>
			<path style="fill:#374475;" d="M389.118,392.209H83.27c-6.47,0-11.714-5.245-11.714-11.714V209.757
				c0-6.47,5.245-11.714,11.714-11.714h305.848c6.47,0,11.714,5.245,11.714,11.714v170.737
				C400.832,386.964,395.587,392.209,389.118,392.209z"/>
			<path style="fill:#FFFFFF;" d="M82.74,380.638V209.614c0-3.92,3.178-7.097,7.097-7.097h293.607c3.92,0,7.097,3.177,7.097,7.097
				v171.023c0,3.92-3.178,7.097-7.097,7.097H89.837C85.918,387.735,82.74,384.557,82.74,380.638z"/>

				<line style="fill:none;stroke:#1D243D;stroke-width:1.7895;stroke-linecap:round;stroke-linejoin:round;stroke-miterlimit:10;" x1="395.911" y1="257.546" x2="395.911" y2="340.759"/>
			<path style="fill:#1D243D;" d="M398.595,245.019c0,1.483-1.202,2.684-2.684,2.684c-1.482,0-2.684-1.202-2.684-2.684
				s1.202-2.684,2.684-2.684C397.393,242.335,398.595,243.536,398.595,245.019z"/>
			<g>
				<path style="fill:none;stroke:#E5E8F2;stroke-width:0.8948;stroke-miterlimit:10;" d="M233.515,221.755H92.129
					c-1.726,0-3.125-1.4-3.125-3.126v-5.381c0-1.726,1.399-3.126,3.125-3.126h141.387c1.726,0,3.126,1.399,3.126,3.126v5.381
					C236.641,220.355,235.242,221.755,233.515,221.755z"/>
				<path style="fill:none;stroke:#E5E8F2;stroke-width:0.8948;stroke-miterlimit:10;" d="M306.297,266.941H94.508
					c-2.793,0-5.058-2.264-5.058-5.058v-24.781c0-2.793,2.264-5.057,5.058-5.057h211.789c2.793,0,5.058,2.264,5.058,5.057v24.781
					C311.354,264.676,309.09,266.941,306.297,266.941z"/>
				<path style="fill:#E5E8F2;" d="M375.681,266.941h-46.334c-2.525,0-4.571-2.047-4.571-4.571v-25.754
					c0-2.525,2.047-4.571,4.571-4.571h46.334c2.525,0,4.571,2.046,4.571,4.571v25.754
					C380.252,264.894,378.206,266.941,375.681,266.941z"/>
				<path style="fill:#E5E8F2;" d="M321.35,377.445h-47.729c-2.139,0-3.873-1.734-3.873-3.873v-17.307
					c0-2.139,1.734-3.873,3.873-3.873h47.729c2.139,0,3.873,1.734,3.873,3.873v17.307
					C325.223,375.711,323.489,377.445,321.35,377.445z"/>
				<path style="fill:#E5E8F2;" d="M210.16,336.286h-43.673c-3.259,0-5.901-2.642-5.901-5.901v-46.358
					c0-3.259,2.642-5.901,5.901-5.901h43.673c3.259,0,5.901,2.642,5.901,5.901v46.358
					C216.061,333.643,213.419,336.286,210.16,336.286z"/>
				<g>

						<rect x="227.693" y="279.467" transform="matrix(-1 -1.224647e-16 1.224647e-16 -1 602.5766 563.4089)" style="fill:#E5E8F2;" width="147.19" height="4.474"/>

						<rect x="272.906" y="289.758" transform="matrix(-1 -1.224647e-16 1.224647e-16 -1 647.4597 583.9887)" style="fill:#E5E8F2;" width="101.647" height="4.474"/>

						<rect x="311.189" y="299.6" transform="matrix(-1 -1.224647e-16 1.224647e-16 -1 685.7423 603.6737)" style="fill:#E5E8F2;" width="63.364" height="4.474"/>
				</g>
				<g>
					<rect x="98.846" y="237.413" style="fill:#E5E8F2;" width="98.604" height="4.474"/>
					<rect x="99.067" y="247.703" style="fill:#E5E8F2;" width="68.094" height="4.474"/>
					<rect x="99.067" y="257.546" style="fill:#E5E8F2;" width="42.448" height="4.474"/>
				</g>
				<g>
					<rect x="204.25" y="237.413" style="fill:#E5E8F2;" width="98.604" height="4.474"/>
					<rect x="204.471" y="247.703" style="fill:#E5E8F2;" width="68.094" height="4.474"/>
					<rect x="204.471" y="257.546" style="fill:#E5E8F2;" width="42.448" height="4.474"/>
				</g>
				<path style="fill:none;stroke:#E5E8F2;stroke-width:0.902;stroke-miterlimit:10;" d="M375.154,382.366H159.867
					c-2.816,0-5.098-2.283-5.098-5.098v-24.7c0-2.816,2.283-5.098,5.098-5.098h215.286c2.816,0,5.098,2.283,5.098,5.098v24.7
					C380.252,380.084,377.969,382.366,375.154,382.366z"/>
				<g>
					<rect x="164.164" y="352.839" style="fill:#E5E8F2;" width="98.604" height="4.474"/>
					<rect x="164.385" y="363.129" style="fill:#E5E8F2;" width="68.094" height="4.474"/>
					<rect x="164.385" y="372.971" style="fill:#E5E8F2;" width="42.448" height="4.474"/>
				</g>
				<g>

						<rect x="227.693" y="311.679" transform="matrix(-1 -1.224647e-16 1.224647e-16 -1 602.5766 627.8325)" style="fill:#E5E8F2;" width="147.19" height="4.474"/>

						<rect x="272.906" y="321.969" transform="matrix(-1 -1.224647e-16 1.224647e-16 -1 647.4597 648.4123)" style="fill:#E5E8F2;" width="101.647" height="4.474"/>

						<rect x="311.189" y="331.812" transform="matrix(-1 -1.224647e-16 1.224647e-16 -1 685.7423 668.0974)" style="fill:#E5E8F2;" width="63.364" height="4.474"/>
				</g>
				<g>

						<rect x="330.592" y="352.839" transform="matrix(-1 -1.224647e-16 1.224647e-16 -1 707.2648 710.1514)" style="fill:#E5E8F2;" width="46.081" height="4.474"/>

						<rect x="344.747" y="363.129" transform="matrix(-1 -1.224647e-16 1.224647e-16 -1 721.3165 730.7313)" style="fill:#E5E8F2;" width="31.822" height="4.474"/>

						<rect x="356.732" y="372.971" transform="matrix(-1 -1.224647e-16 1.224647e-16 -1 733.3015 750.4164)" style="fill:#E5E8F2;" width="19.837" height="4.474"/>
				</g>
				<path style="fill:#E5E8F2;" d="M137.433,381.919H96.945c-3.892,0-7.046-3.155-7.046-7.046v-93.28
					c0-3.891,3.155-7.046,7.046-7.046h40.488c3.892,0,7.046,3.155,7.046,7.046v93.28
					C144.479,378.764,141.325,381.919,137.433,381.919z"/>
				<path style="fill:none;stroke:#E5E8F2;stroke-width:0.8948;stroke-miterlimit:10;" d="M374.1,340.759H161.816
					c-3.645,0-6.599-2.954-6.599-6.599v-53.015c0-3.644,2.954-6.599,6.599-6.599H374.1c3.645,0,6.599,2.954,6.599,6.599v53.015
					C380.699,337.805,377.745,340.759,374.1,340.759z"/>
				<path style="fill:#E5E8F2;" d="M373.094,221.755H248.72c-3.212,0-5.816-2.604-5.816-5.816l0,0c0-3.212,2.604-5.816,5.816-5.816
					h124.373c3.212,0,5.816,2.604,5.816,5.816l0,0C378.91,219.151,376.306,221.755,373.094,221.755z"/>
			</g>
		</g>
		<g>
			<g>
				<path style="fill:none;stroke:#9BB1FF;stroke-width:0.8948;stroke-miterlimit:10;" d="M350.438,330.47h20.711v-13.201
					c0-0.785-0.636-1.421-1.421-1.421h-17.87c-0.785,0-1.421,0.636-1.421,1.421V330.47z"/>
				<path style="fill:none;stroke:#9BB1FF;stroke-width:0.8948;stroke-miterlimit:10;" d="M375.033,330.47h20.711v-13.281
					c0-0.74-0.6-1.341-1.341-1.341h-18.03c-0.74,0-1.34,0.6-1.34,1.341V330.47z"/>
				<path style="fill:#2E4EBE;" d="M402.216,330.47h27.831v-13.405c0-0.672-0.544-1.216-1.216-1.216h-25.398
					c-0.672,0-1.216,0.544-1.216,1.216V330.47z"/>
			</g>
			<path style="fill:#FFECD4;" d="M274.365,408.454H433.01c1.055,0,1.911-0.856,1.911-1.911v-79.036
				c0-1.056-0.856-1.911-1.911-1.911H274.365c-1.055,0-1.911,0.855-1.911,1.911v79.036
				C272.454,407.598,273.31,408.454,274.365,408.454z"/>
			<g>
				<path style="fill:none;stroke:#FFCC8F;stroke-width:0.8948;stroke-miterlimit:10;" d="M279.359,404.392h60.113
					c1.122,0,2.031-0.909,2.031-2.031v-55.239c0-1.122-0.909-2.031-2.031-2.031h-60.113c-1.122,0-2.031,0.909-2.031,2.031v55.239
					C277.328,403.483,278.238,404.392,279.359,404.392z"/>
				<g>
					<path style="fill:none;stroke:#E68068;stroke-width:0.4474;stroke-miterlimit:10;" d="M330.942,350.778
						c0,1.346,1.091,2.437,2.437,2.437c1.346,0,2.437-1.091,2.437-2.437c0-1.346-1.091-2.437-2.437-2.437
						C332.033,348.341,330.942,349.432,330.942,350.778z"/>
					<path style="fill:none;stroke:#E68068;stroke-width:0.4474;stroke-miterlimit:10;" d="M321.194,350.778
						c0,1.346,1.091,2.437,2.437,2.437c1.346,0,2.437-1.091,2.437-2.437c0-1.346-1.091-2.437-2.437-2.437
						C322.285,348.341,321.194,349.432,321.194,350.778z"/>
					<path style="fill:none;stroke:#E68068;stroke-width:0.4474;stroke-miterlimit:10;" d="M311.446,350.778
						c0,1.346,1.091,2.437,2.437,2.437c1.346,0,2.437-1.091,2.437-2.437c0-1.346-1.091-2.437-2.437-2.437
						C312.537,348.341,311.446,349.432,311.446,350.778z"/>
					<path style="fill:none;stroke:#E68068;stroke-width:0.4474;stroke-miterlimit:10;" d="M301.698,350.778
						c0,1.346,1.091,2.437,2.437,2.437c1.346,0,2.437-1.091,2.437-2.437c0-1.346-1.091-2.437-2.437-2.437
						C302.789,348.341,301.698,349.432,301.698,350.778z"/>
					<path style="fill:none;stroke:#E68068;stroke-width:0.4474;stroke-miterlimit:10;" d="M291.95,350.778
						c0,1.346,1.091,2.437,2.437,2.437c1.346,0,2.437-1.091,2.437-2.437c0-1.346-1.091-2.437-2.437-2.437
						C293.041,348.341,291.95,349.432,291.95,350.778z"/>
					<path style="fill:none;stroke:#E68068;stroke-width:0.4474;stroke-miterlimit:10;" d="M282.202,350.778
						c0,1.346,1.091,2.437,2.437,2.437c1.346,0,2.437-1.091,2.437-2.437c0-1.346-1.091-2.437-2.437-2.437
						C283.293,348.341,282.202,349.432,282.202,350.778z"/>
					<path style="fill:none;stroke:#E68068;stroke-width:0.4474;stroke-miterlimit:10;" d="M330.942,360.526
						c0,1.346,1.091,2.437,2.437,2.437c1.346,0,2.437-1.091,2.437-2.437c0-1.346-1.091-2.437-2.437-2.437
						C332.033,358.089,330.942,359.18,330.942,360.526z"/>
					<path style="fill:none;stroke:#E68068;stroke-width:0.4474;stroke-miterlimit:10;" d="M321.194,360.526
						c0,1.346,1.091,2.437,2.437,2.437c1.346,0,2.437-1.091,2.437-2.437c0-1.346-1.091-2.437-2.437-2.437
						C322.285,358.089,321.194,359.18,321.194,360.526z"/>
					<path style="fill:none;stroke:#E68068;stroke-width:0.4474;stroke-miterlimit:10;" d="M311.446,360.526
						c0,1.346,1.091,2.437,2.437,2.437c1.346,0,2.437-1.091,2.437-2.437c0-1.346-1.091-2.437-2.437-2.437
						C312.537,358.089,311.446,359.18,311.446,360.526z"/>
					<path style="fill:none;stroke:#E68068;stroke-width:0.4474;stroke-miterlimit:10;" d="M301.698,360.526
						c0,1.346,1.091,2.437,2.437,2.437c1.346,0,2.437-1.091,2.437-2.437c0-1.346-1.091-2.437-2.437-2.437
						C302.789,358.089,301.698,359.18,301.698,360.526z"/>
					<path style="fill:none;stroke:#E68068;stroke-width:0.4474;stroke-miterlimit:10;" d="M291.95,360.526
						c0,1.346,1.091,2.437,2.437,2.437c1.346,0,2.437-1.091,2.437-2.437c0-1.346-1.091-2.437-2.437-2.437
						C293.041,358.089,291.95,359.18,291.95,360.526z"/>
					<path style="fill:none;stroke:#E68068;stroke-width:0.4474;stroke-miterlimit:10;" d="M282.202,360.526
						c0,1.346,1.091,2.437,2.437,2.437c1.346,0,2.437-1.091,2.437-2.437c0-1.346-1.091-2.437-2.437-2.437
						C283.293,358.089,282.202,359.18,282.202,360.526z"/>
					<path style="fill:none;stroke:#E68068;stroke-width:0.4474;stroke-miterlimit:10;" d="M330.942,370.274
						c0,1.346,1.091,2.437,2.437,2.437c1.346,0,2.437-1.091,2.437-2.437c0-1.346-1.091-2.437-2.437-2.437
						C332.033,367.837,330.942,368.928,330.942,370.274z"/>
					<path style="fill:none;stroke:#E68068;stroke-width:0.4474;stroke-miterlimit:10;" d="M321.194,370.274
						c0,1.346,1.091,2.437,2.437,2.437c1.346,0,2.437-1.091,2.437-2.437c0-1.346-1.091-2.437-2.437-2.437
						C322.285,367.837,321.194,368.928,321.194,370.274z"/>
					<path style="fill:none;stroke:#E68068;stroke-width:0.4474;stroke-miterlimit:10;" d="M311.446,370.274
						c0,1.346,1.091,2.437,2.437,2.437c1.346,0,2.437-1.091,2.437-2.437c0-1.346-1.091-2.437-2.437-2.437
						C312.537,367.837,311.446,368.928,311.446,370.274z"/>
					<path style="fill:none;stroke:#E68068;stroke-width:0.4474;stroke-miterlimit:10;" d="M301.698,370.274
						c0,1.346,1.091,2.437,2.437,2.437c1.346,0,2.437-1.091,2.437-2.437c0-1.346-1.091-2.437-2.437-2.437
						C302.789,367.837,301.698,368.928,301.698,370.274z"/>
					<path style="fill:none;stroke:#E68068;stroke-width:0.4474;stroke-miterlimit:10;" d="M291.95,370.274
						c0,1.346,1.091,2.437,2.437,2.437c1.346,0,2.437-1.091,2.437-2.437c0-1.346-1.091-2.437-2.437-2.437
						C293.041,367.837,291.95,368.928,291.95,370.274z"/>
					<path style="fill:none;stroke:#E68068;stroke-width:0.4474;stroke-miterlimit:10;" d="M282.202,370.274
						c0,1.346,1.091,2.437,2.437,2.437c1.346,0,2.437-1.091,2.437-2.437c0-1.346-1.091-2.437-2.437-2.437
						C283.293,367.837,282.202,368.928,282.202,370.274z"/>
					<path style="fill:none;stroke:#E68068;stroke-width:0.4474;stroke-miterlimit:10;" d="M330.942,380.022
						c0,1.346,1.091,2.437,2.437,2.437c1.346,0,2.437-1.091,2.437-2.437c0-1.346-1.091-2.437-2.437-2.437
						C332.033,377.585,330.942,378.676,330.942,380.022z"/>
					<circle style="fill:none;stroke:#E68068;stroke-width:0.4474;stroke-miterlimit:10;" cx="323.631" cy="380.022" r="2.437"/>
					<path style="fill:none;stroke:#E68068;stroke-width:0.4474;stroke-miterlimit:10;" d="M311.446,380.022
						c0,1.346,1.091,2.437,2.437,2.437c1.346,0,2.437-1.091,2.437-2.437c0-1.346-1.091-2.437-2.437-2.437
						C312.537,377.585,311.446,378.676,311.446,380.022z"/>
					<path style="fill:none;stroke:#E68068;stroke-width:0.4474;stroke-miterlimit:10;" d="M301.698,380.022
						c0,1.346,1.091,2.437,2.437,2.437c1.346,0,2.437-1.091,2.437-2.437c0-1.346-1.091-2.437-2.437-2.437
						C302.789,377.585,301.698,378.676,301.698,380.022z"/>
					<path style="fill:none;stroke:#E68068;stroke-width:0.4474;stroke-miterlimit:10;" d="M291.95,380.022
						c0,1.346,1.091,2.437,2.437,2.437c1.346,0,2.437-1.091,2.437-2.437c0-1.346-1.091-2.437-2.437-2.437
						C293.041,377.585,291.95,378.676,291.95,380.022z"/>
					<path style="fill:none;stroke:#E68068;stroke-width:0.4474;stroke-miterlimit:10;" d="M282.202,380.022
						c0,1.346,1.091,2.437,2.437,2.437c1.346,0,2.437-1.091,2.437-2.437c0-1.346-1.091-2.437-2.437-2.437
						C283.293,377.585,282.202,378.676,282.202,380.022z"/>
					<path style="fill:none;stroke:#E68068;stroke-width:0.4474;stroke-miterlimit:10;" d="M330.942,389.77
						c0,1.346,1.091,2.437,2.437,2.437c1.346,0,2.437-1.091,2.437-2.437c0-1.346-1.091-2.437-2.437-2.437
						C332.033,387.333,330.942,388.424,330.942,389.77z"/>
					<path style="fill:none;stroke:#E68068;stroke-width:0.4474;stroke-miterlimit:10;" d="M321.194,389.77
						c0,1.346,1.091,2.437,2.437,2.437c1.346,0,2.437-1.091,2.437-2.437c0-1.346-1.091-2.437-2.437-2.437
						C322.285,387.333,321.194,388.424,321.194,389.77z"/>
					<path style="fill:none;stroke:#E68068;stroke-width:0.4474;stroke-miterlimit:10;" d="M311.446,389.77
						c0,1.346,1.091,2.437,2.437,2.437c1.346,0,2.437-1.091,2.437-2.437c0-1.346-1.091-2.437-2.437-2.437
						C312.537,387.333,311.446,388.424,311.446,389.77z"/>
					<path style="fill:none;stroke:#E68068;stroke-width:0.4474;stroke-miterlimit:10;" d="M301.698,389.77
						c0,1.346,1.091,2.437,2.437,2.437c1.346,0,2.437-1.091,2.437-2.437c0-1.346-1.091-2.437-2.437-2.437
						C302.789,387.333,301.698,388.424,301.698,389.77z"/>
					<path style="fill:none;stroke:#E68068;stroke-width:0.4474;stroke-miterlimit:10;" d="M291.95,389.77
						c0,1.346,1.091,2.437,2.437,2.437c1.346,0,2.437-1.091,2.437-2.437c0-1.346-1.091-2.437-2.437-2.437
						C293.041,387.333,291.95,388.424,291.95,389.77z"/>
					<path style="fill:none;stroke:#E68068;stroke-width:0.4474;stroke-miterlimit:10;" d="M282.202,389.77
						c0,1.346,1.091,2.437,2.437,2.437c1.346,0,2.437-1.091,2.437-2.437c0-1.346-1.091-2.437-2.437-2.437
						C283.293,387.333,282.202,388.424,282.202,389.77z"/>
					<path style="fill:none;stroke:#E68068;stroke-width:0.4474;stroke-miterlimit:10;" d="M330.942,399.518
						c0,1.346,1.091,2.437,2.437,2.437c1.346,0,2.437-1.091,2.437-2.437c0-1.346-1.091-2.437-2.437-2.437
						C332.033,397.081,330.942,398.172,330.942,399.518z"/>
					<circle style="fill:none;stroke:#E68068;stroke-width:0.4474;stroke-miterlimit:10;" cx="323.631" cy="399.518" r="2.437"/>
					<path style="fill:none;stroke:#E68068;stroke-width:0.4474;stroke-miterlimit:10;" d="M311.446,399.518
						c0,1.346,1.091,2.437,2.437,2.437c1.346,0,2.437-1.091,2.437-2.437c0-1.346-1.091-2.437-2.437-2.437
						C312.537,397.081,311.446,398.172,311.446,399.518z"/>
					<path style="fill:none;stroke:#E68068;stroke-width:0.4474;stroke-miterlimit:10;" d="M301.698,399.518
						c0,1.346,1.091,2.437,2.437,2.437c1.346,0,2.437-1.091,2.437-2.437c0-1.346-1.091-2.437-2.437-2.437
						C302.789,397.081,301.698,398.172,301.698,399.518z"/>
					<path style="fill:none;stroke:#E68068;stroke-width:0.4474;stroke-miterlimit:10;" d="M291.95,399.518
						c0,1.346,1.091,2.437,2.437,2.437c1.346,0,2.437-1.091,2.437-2.437c0-1.346-1.091-2.437-2.437-2.437
						C293.041,397.081,291.95,398.172,291.95,399.518z"/>
					<path style="fill:none;stroke:#E68068;stroke-width:0.4474;stroke-miterlimit:10;" d="M282.202,399.518
						c0,1.346,1.091,2.437,2.437,2.437c1.346,0,2.437-1.091,2.437-2.437c0-1.346-1.091-2.437-2.437-2.437
						C283.293,397.081,282.202,398.172,282.202,399.518z"/>
				</g>
			</g>
			<g>
				<path style="fill:none;stroke:#FFCC8F;stroke-width:0.8948;stroke-miterlimit:10;" d="M347.189,408.454h79.608v-66.611
					c0-3.14-2.546-5.686-5.686-5.686h-68.236c-3.141,0-5.686,2.546-5.686,5.686V408.454z"/>
				<path style="fill:none;stroke:#FFF4E6;stroke-width:0.6711;stroke-miterlimit:10;" d="M360.12,388.958h54.558
					c3.553,0,6.433-2.88,6.433-6.433v-24.502c0-3.553-2.88-6.433-6.433-6.433H360.12c-3.553,0-6.433,2.88-6.433,6.433v24.502
					C353.688,386.078,356.568,388.958,360.12,388.958z"/>
				<path style="fill:#E68068;" d="M417.049,382.525v-24.502c0-1.31-1.062-2.371-2.371-2.371H360.12
					c-1.309,0-2.371,1.062-2.371,2.371v24.502c0,1.31,1.062,2.371,2.371,2.371h54.558
					C415.988,384.896,417.049,383.834,417.049,382.525z"/>
				<path style="fill:none;stroke:#FFF4E6;stroke-width:0.8948;stroke-miterlimit:10;" d="M362.217,359.308h51.989
					c0,1.966-1.167,3.656-2.843,4.427v12.34c0,0.834-0.676,1.511-1.51,1.511h-43.282c-0.834,0-1.51-0.676-1.51-1.511v-12.34
					C363.383,362.964,362.217,361.274,362.217,359.308z"/>
				<g>
					<path style="fill:#FFFFFF;" d="M394.934,373.523c0,4.935,4.001,8.936,8.936,8.936c4.935,0,8.936-4.001,8.936-8.936
						s-4.001-8.936-8.936-8.936C398.934,364.588,394.934,368.588,394.934,373.523z"/>
					<g>
						<g>
							<path style="fill:#E68068;" d="M398.183,373.523c0,3.141,2.546,5.686,5.686,5.686c3.14,0,5.686-2.546,5.686-5.686
								s-2.546-5.686-5.686-5.686C400.729,367.837,398.183,370.383,398.183,373.523z"/>
							<path style="fill:#E68068;" d="M403.057,367.025c0,0.448,0.364,0.812,0.812,0.812c0.449,0,0.812-0.364,0.812-0.812
								c0-0.449-0.364-0.812-0.812-0.812C403.421,366.212,403.057,366.576,403.057,367.025z"/>
							<path style="fill:#E68068;" d="M400.821,367.727c0.158,0.42,0.626,0.632,1.046,0.474c0.42-0.158,0.632-0.626,0.474-1.046
								c-0.158-0.42-0.626-0.632-1.046-0.474C400.875,366.839,400.663,367.307,400.821,367.727z"/>
							<path style="fill:#E68068;" d="M398.975,369.172c0.296,0.337,0.809,0.371,1.146,0.075c0.337-0.296,0.371-0.809,0.076-1.146
								c-0.296-0.337-0.809-0.371-1.146-0.076C398.713,368.321,398.68,368.834,398.975,369.172z"/>
							<path style="fill:#E68068;" d="M397.756,371.173c0.396,0.212,0.888,0.063,1.099-0.333c0.212-0.396,0.063-0.888-0.333-1.099
								c-0.396-0.212-0.888-0.063-1.1,0.333C397.212,370.47,397.361,370.962,397.756,371.173z"/>
							<path style="fill:#E68068;" d="M397.32,373.476c0.445,0.059,0.853-0.254,0.912-0.699c0.059-0.445-0.254-0.853-0.699-0.912
								c-0.445-0.059-0.853,0.254-0.912,0.699C396.563,373.009,396.875,373.417,397.32,373.476z"/>
							<path style="fill:#E68068;" d="M397.723,375.785c0.437-0.101,0.709-0.538,0.607-0.975c-0.101-0.437-0.538-0.709-0.975-0.607
								c-0.437,0.102-0.709,0.538-0.607,0.975C396.849,375.615,397.286,375.887,397.723,375.785z"/>
							<path style="fill:#E68068;" d="M398.913,377.805c0.373-0.249,0.474-0.753,0.225-1.127c-0.249-0.373-0.753-0.474-1.126-0.225
								s-0.474,0.753-0.225,1.126C398.035,377.953,398.54,378.053,398.913,377.805z"/>
							<path style="fill:#E68068;" d="M400.738,379.275c0.262-0.364,0.178-0.872-0.186-1.134c-0.365-0.262-0.872-0.179-1.134,0.186
								c-0.262,0.364-0.178,0.872,0.186,1.134C399.968,379.723,400.476,379.64,400.738,379.275z"/>
							<path style="fill:#E68068;" d="M402.964,380.01c0.117-0.433-0.14-0.879-0.573-0.996c-0.433-0.117-0.879,0.14-0.996,0.573
								c-0.117,0.433,0.14,0.879,0.573,0.996C402.401,380.699,402.847,380.443,402.964,380.01z"/>
							<path style="fill:#E68068;" d="M405.305,379.913c-0.043-0.447-0.44-0.773-0.887-0.73c-0.447,0.043-0.773,0.44-0.73,0.887
								c0.043,0.446,0.44,0.773,0.887,0.73C405.022,380.757,405.349,380.36,405.305,379.913z"/>
							<path style="fill:#E68068;" d="M407.463,378.999c-0.198-0.403-0.685-0.569-1.087-0.371c-0.403,0.198-0.569,0.685-0.371,1.087
								c0.198,0.403,0.685,0.569,1.087,0.371C407.495,379.888,407.661,379.401,407.463,378.999z"/>
							<path style="fill:#E68068;" d="M409.161,377.382c-0.327-0.307-0.841-0.291-1.148,0.036c-0.307,0.327-0.291,0.841,0.035,1.148
								c0.327,0.307,0.841,0.292,1.148-0.035C409.504,378.204,409.488,377.69,409.161,377.382z"/>
							<path style="fill:#E68068;" d="M410.181,375.272c-0.414-0.173-0.89,0.023-1.062,0.438c-0.173,0.414,0.023,0.89,0.437,1.062
								c0.414,0.172,0.89-0.023,1.062-0.438C410.791,375.92,410.595,375.445,410.181,375.272z"/>
							<path style="fill:#E68068;" d="M410.392,372.938c-0.449-0.016-0.825,0.335-0.84,0.784c-0.016,0.448,0.335,0.824,0.784,0.84
								c0.448,0.016,0.824-0.335,0.84-0.784C411.191,373.33,410.841,372.954,410.392,372.938z"/>
							<path style="fill:#E68068;" d="M409.768,370.679c-0.425,0.143-0.654,0.604-0.51,1.029c0.143,0.425,0.604,0.654,1.029,0.51
								c0.425-0.143,0.654-0.604,0.51-1.029C410.654,370.764,410.194,370.535,409.768,370.679z"/>
							<path style="fill:#E68068;" d="M408.389,368.784c-0.348,0.284-0.399,0.795-0.115,1.143c0.284,0.348,0.796,0.399,1.143,0.115
								c0.348-0.284,0.399-0.796,0.115-1.143C409.248,368.552,408.737,368.5,408.389,368.784z"/>
							<path style="fill:#E68068;" d="M405.933,367.38c-0.225,0.388-0.094,0.885,0.294,1.11c0.388,0.225,0.885,0.094,1.111-0.294
								c0.225-0.388,0.094-0.885-0.294-1.11C406.655,366.861,406.158,366.992,405.933,367.38z"/>
						</g>
					</g>
					<g>
						<path style="fill:#E0E4FF;" d="M401.152,373.516c0,1.508,1.223,2.731,2.731,2.731s2.731-1.223,2.731-2.731
							c0-1.508-1.223-2.731-2.731-2.731S401.152,372.007,401.152,373.516z"/>
						<circle style="fill:#E0E4FF;" cx="403.883" cy="370.394" r="0.39"/>
						<path style="fill:#E0E4FF;" d="M402.419,370.732c0.076,0.202,0.301,0.304,0.503,0.228c0.202-0.076,0.304-0.301,0.228-0.503
							c-0.076-0.202-0.301-0.304-0.503-0.228C402.445,370.305,402.343,370.53,402.419,370.732z"/>
						<path style="fill:#E0E4FF;" d="M401.532,371.425c0.142,0.162,0.389,0.178,0.551,0.036c0.162-0.142,0.178-0.389,0.036-0.551
							c-0.142-0.162-0.388-0.178-0.55-0.036C401.406,371.017,401.39,371.263,401.532,371.425z"/>
						<path style="fill:#E0E4FF;" d="M400.947,372.387c0.19,0.102,0.426,0.03,0.528-0.16c0.102-0.19,0.03-0.426-0.16-0.528
							c-0.19-0.102-0.426-0.03-0.528,0.16C400.685,372.049,400.757,372.285,400.947,372.387z"/>
						<path style="fill:#E0E4FF;" d="M400.737,373.493c0.214,0.028,0.41-0.122,0.438-0.336c0.028-0.214-0.122-0.41-0.336-0.438
							c-0.214-0.028-0.41,0.122-0.438,0.336C400.374,373.268,400.524,373.465,400.737,373.493z"/>
						<path style="fill:#E0E4FF;" d="M400.931,374.602c0.21-0.049,0.34-0.258,0.292-0.468c-0.049-0.21-0.258-0.341-0.468-0.292
							c-0.21,0.049-0.341,0.258-0.292,0.468C400.511,374.52,400.721,374.651,400.931,374.602z"/>
						<path style="fill:#E0E4FF;" d="M401.503,375.572c0.179-0.12,0.228-0.362,0.108-0.541c-0.12-0.179-0.362-0.228-0.541-0.108
							c-0.179,0.12-0.228,0.362-0.108,0.541C401.081,375.643,401.323,375.691,401.503,375.572z"/>
						<path style="fill:#E0E4FF;" d="M402.379,376.278c0.126-0.175,0.086-0.419-0.089-0.544c-0.175-0.126-0.419-0.086-0.544,0.089
							c-0.126,0.175-0.086,0.419,0.089,0.544C402.009,376.493,402.253,376.453,402.379,376.278z"/>
						<path style="fill:#E0E4FF;" d="M403.448,376.631c0.056-0.208-0.067-0.422-0.275-0.478c-0.208-0.056-0.422,0.067-0.478,0.275
							c-0.056,0.208,0.067,0.422,0.275,0.478C403.178,376.962,403.392,376.839,403.448,376.631z"/>
						<path style="fill:#E0E4FF;" d="M404.572,376.585c-0.021-0.215-0.211-0.371-0.426-0.351c-0.214,0.021-0.371,0.212-0.351,0.426
							c0.021,0.214,0.212,0.371,0.426,0.351C404.436,376.99,404.593,376.799,404.572,376.585z"/>
						<path style="fill:#E0E4FF;" d="M405.609,376.145c-0.095-0.194-0.329-0.273-0.522-0.178c-0.193,0.095-0.273,0.329-0.178,0.522
							c0.095,0.193,0.329,0.273,0.522,0.178C405.624,376.572,405.704,376.339,405.609,376.145z"/>
						<path style="fill:#E0E4FF;" d="M406.424,375.369c-0.157-0.148-0.404-0.14-0.551,0.017c-0.148,0.157-0.14,0.404,0.017,0.551
							c0.157,0.148,0.404,0.14,0.552-0.017C406.589,375.763,406.581,375.517,406.424,375.369z"/>
						<path style="fill:#E0E4FF;" d="M406.914,374.355c-0.199-0.083-0.427,0.011-0.51,0.21c-0.083,0.199,0.011,0.427,0.21,0.51
							c0.199,0.083,0.427-0.011,0.51-0.21C407.207,374.667,407.113,374.438,406.914,374.355z"/>
						<path style="fill:#E0E4FF;" d="M407.016,373.234c-0.215-0.008-0.396,0.161-0.403,0.376c-0.007,0.215,0.161,0.396,0.376,0.404
							c0.215,0.008,0.396-0.161,0.404-0.376C407.4,373.423,407.231,373.242,407.016,373.234z"/>
						<path style="fill:#E0E4FF;" d="M406.716,372.149c-0.204,0.069-0.314,0.29-0.245,0.494c0.069,0.204,0.29,0.314,0.494,0.245
							c0.204-0.069,0.314-0.29,0.245-0.494C407.142,372.19,406.92,372.08,406.716,372.149z"/>
						<path style="fill:#E0E4FF;" d="M406.054,371.239c-0.167,0.136-0.192,0.382-0.056,0.549c0.136,0.167,0.382,0.192,0.549,0.056
							c0.167-0.136,0.192-0.382,0.055-0.549C406.466,371.128,406.221,371.103,406.054,371.239z"/>
						<path style="fill:#E0E4FF;" d="M404.874,370.565c-0.108,0.186-0.045,0.425,0.141,0.533c0.186,0.108,0.425,0.045,0.533-0.141
							c0.108-0.186,0.045-0.425-0.141-0.533C405.221,370.315,404.982,370.379,404.874,370.565z"/>
					</g>
				</g>
				<g>
					<circle style="fill:#FFFFFF;" cx="373.618" cy="373.523" r="8.936"/>
					<g>
						<circle style="fill:#E68068;" cx="373.617" cy="373.523" r="5.686"/>
						<path style="fill:#E68068;" d="M372.805,367.025c0,0.448,0.364,0.812,0.812,0.812c0.449,0,0.812-0.364,0.812-0.812
							c0-0.449-0.363-0.812-0.812-0.812C373.169,366.212,372.805,366.576,372.805,367.025z"/>
						<path style="fill:#E68068;" d="M370.569,367.727c0.158,0.42,0.626,0.632,1.046,0.474c0.42-0.158,0.632-0.626,0.474-1.046
							c-0.158-0.42-0.626-0.632-1.046-0.474C370.624,366.839,370.411,367.307,370.569,367.727z"/>
						<path style="fill:#E68068;" d="M368.723,369.172c0.296,0.337,0.809,0.371,1.146,0.075c0.337-0.296,0.371-0.809,0.076-1.146
							c-0.296-0.337-0.809-0.371-1.146-0.076C368.461,368.321,368.428,368.834,368.723,369.172z"/>
						<path style="fill:#E68068;" d="M367.504,371.173c0.396,0.212,0.888,0.063,1.1-0.333c0.212-0.396,0.063-0.888-0.333-1.099
							c-0.396-0.212-0.888-0.063-1.1,0.333C366.96,370.47,367.109,370.962,367.504,371.173z"/>
						<path style="fill:#E68068;" d="M367.068,373.476c0.445,0.059,0.853-0.254,0.912-0.699c0.059-0.445-0.254-0.853-0.699-0.912
							c-0.445-0.059-0.853,0.254-0.912,0.699C366.311,373.009,366.624,373.417,367.068,373.476z"/>
						<path style="fill:#E68068;" d="M367.471,375.785c0.437-0.101,0.709-0.538,0.607-0.975c-0.101-0.437-0.538-0.709-0.975-0.607
							c-0.437,0.102-0.709,0.538-0.607,0.975C366.598,375.615,367.034,375.887,367.471,375.785z"/>
						<path style="fill:#E68068;" d="M368.661,377.805c0.373-0.249,0.474-0.753,0.225-1.127c-0.249-0.373-0.753-0.474-1.126-0.225
							s-0.474,0.753-0.225,1.126C367.783,377.953,368.288,378.053,368.661,377.805z"/>
						<path style="fill:#E68068;" d="M370.486,379.275c0.262-0.364,0.179-0.872-0.186-1.134c-0.364-0.262-0.872-0.179-1.134,0.186
							c-0.262,0.364-0.178,0.872,0.186,1.134C369.716,379.723,370.224,379.64,370.486,379.275z"/>
						<path style="fill:#E68068;" d="M372.712,380.01c0.117-0.433-0.14-0.879-0.573-0.996c-0.433-0.117-0.879,0.14-0.995,0.573
							c-0.117,0.433,0.14,0.879,0.573,0.996C372.149,380.699,372.595,380.443,372.712,380.01z"/>
						<path style="fill:#E68068;" d="M375.053,379.913c-0.043-0.447-0.44-0.773-0.887-0.73c-0.447,0.043-0.773,0.44-0.73,0.887
							c0.043,0.446,0.44,0.773,0.887,0.73C374.77,380.757,375.097,380.36,375.053,379.913z"/>
						<path style="fill:#E68068;" d="M377.211,378.999c-0.198-0.403-0.685-0.569-1.087-0.371c-0.403,0.198-0.569,0.685-0.371,1.087
							c0.198,0.403,0.685,0.569,1.087,0.371C377.243,379.888,377.409,379.401,377.211,378.999z"/>
						<path style="fill:#E68068;" d="M378.909,377.382c-0.327-0.307-0.841-0.291-1.148,0.036c-0.307,0.327-0.291,0.841,0.036,1.148
							c0.327,0.307,0.841,0.292,1.148-0.035C379.252,378.204,379.236,377.69,378.909,377.382z"/>
						<path style="fill:#E68068;" d="M379.929,375.272c-0.414-0.173-0.89,0.023-1.062,0.438c-0.173,0.414,0.023,0.89,0.438,1.062
							c0.414,0.172,0.89-0.023,1.062-0.438C380.539,375.92,380.343,375.445,379.929,375.272z"/>
						<path style="fill:#E68068;" d="M380.141,372.938c-0.448-0.016-0.825,0.335-0.84,0.784c-0.016,0.448,0.335,0.824,0.784,0.84
							c0.448,0.016,0.825-0.335,0.84-0.784C380.94,373.33,380.589,372.954,380.141,372.938z"/>
						<path style="fill:#E68068;" d="M379.517,370.679c-0.425,0.143-0.654,0.604-0.51,1.029c0.143,0.425,0.604,0.654,1.029,0.51
							c0.425-0.143,0.654-0.604,0.51-1.029C380.402,370.764,379.942,370.535,379.517,370.679z"/>
						<path style="fill:#E68068;" d="M378.137,368.784c-0.348,0.284-0.399,0.795-0.115,1.143c0.284,0.348,0.796,0.399,1.143,0.115
							c0.348-0.284,0.399-0.796,0.115-1.143C378.997,368.552,378.485,368.5,378.137,368.784z"/>
						<path style="fill:#E68068;" d="M375.681,367.38c-0.225,0.388-0.094,0.885,0.294,1.11c0.388,0.225,0.885,0.094,1.111-0.294
							c0.225-0.388,0.094-0.885-0.294-1.11C376.403,366.861,375.906,366.992,375.681,367.38z"/>
					</g>
					<g>
						<path style="fill:#E0E4FF;" d="M370.9,373.516c0,1.508,1.223,2.731,2.731,2.731c1.508,0,2.731-1.223,2.731-2.731
							c0-1.508-1.223-2.731-2.731-2.731C372.123,370.784,370.9,372.007,370.9,373.516z"/>
						<path style="fill:#E0E4FF;" d="M373.241,370.394c0,0.215,0.175,0.39,0.39,0.39c0.215,0,0.39-0.175,0.39-0.39
							c0-0.215-0.175-0.39-0.39-0.39C373.416,370.004,373.241,370.179,373.241,370.394z"/>
						<path style="fill:#E0E4FF;" d="M372.167,370.732c0.076,0.202,0.301,0.304,0.503,0.228c0.202-0.076,0.304-0.301,0.228-0.503
							c-0.076-0.202-0.301-0.304-0.503-0.228C372.193,370.305,372.091,370.53,372.167,370.732z"/>
						<path style="fill:#E0E4FF;" d="M371.28,371.425c0.142,0.162,0.388,0.178,0.551,0.036c0.162-0.142,0.178-0.389,0.036-0.551
							c-0.142-0.162-0.388-0.178-0.551-0.036C371.155,371.017,371.138,371.263,371.28,371.425z"/>
						<path style="fill:#E0E4FF;" d="M370.695,372.387c0.19,0.102,0.426,0.03,0.528-0.16c0.102-0.19,0.03-0.426-0.16-0.528
							c-0.19-0.102-0.426-0.03-0.528,0.16C370.434,372.049,370.505,372.285,370.695,372.387z"/>
						<path style="fill:#E0E4FF;" d="M370.486,373.493c0.214,0.028,0.41-0.122,0.438-0.336c0.028-0.214-0.122-0.41-0.336-0.438
							c-0.214-0.028-0.41,0.122-0.438,0.336C370.122,373.268,370.272,373.465,370.486,373.493z"/>
						<path style="fill:#E0E4FF;" d="M370.679,374.602c0.21-0.049,0.341-0.258,0.292-0.468s-0.258-0.341-0.468-0.292
							c-0.21,0.049-0.341,0.258-0.292,0.468C370.26,374.52,370.469,374.651,370.679,374.602z"/>
						<path style="fill:#E0E4FF;" d="M371.251,375.572c0.179-0.12,0.228-0.362,0.108-0.541c-0.12-0.179-0.362-0.228-0.541-0.108
							c-0.179,0.12-0.228,0.362-0.108,0.541C370.829,375.643,371.071,375.691,371.251,375.572z"/>
						<path style="fill:#E0E4FF;" d="M372.127,376.278c0.126-0.175,0.086-0.419-0.089-0.544c-0.175-0.126-0.419-0.086-0.544,0.089
							c-0.126,0.175-0.086,0.419,0.089,0.544C371.757,376.493,372.001,376.453,372.127,376.278z"/>
						<path style="fill:#E0E4FF;" d="M373.196,376.631c0.056-0.208-0.067-0.422-0.275-0.478c-0.208-0.056-0.422,0.067-0.478,0.275
							c-0.056,0.208,0.067,0.422,0.275,0.478C372.926,376.962,373.14,376.839,373.196,376.631z"/>
						<path style="fill:#E0E4FF;" d="M374.321,376.585c-0.021-0.215-0.212-0.371-0.426-0.351c-0.214,0.021-0.371,0.212-0.351,0.426
							c0.021,0.214,0.211,0.371,0.426,0.351C374.184,376.99,374.342,376.799,374.321,376.585z"/>
						<path style="fill:#E0E4FF;" d="M375.357,376.145c-0.095-0.194-0.329-0.273-0.522-0.178c-0.193,0.095-0.273,0.329-0.178,0.522
							c0.095,0.193,0.329,0.273,0.522,0.178C375.372,376.572,375.452,376.339,375.357,376.145z"/>
						<path style="fill:#E0E4FF;" d="M376.173,375.369c-0.157-0.148-0.404-0.14-0.552,0.017c-0.148,0.157-0.14,0.404,0.017,0.551
							c0.157,0.148,0.404,0.14,0.552-0.017C376.337,375.763,376.329,375.517,376.173,375.369z"/>
						<path style="fill:#E0E4FF;" d="M376.662,374.355c-0.199-0.083-0.427,0.011-0.51,0.21c-0.083,0.199,0.011,0.427,0.21,0.51
							c0.199,0.083,0.427-0.011,0.51-0.21C376.955,374.667,376.861,374.438,376.662,374.355z"/>
						<path style="fill:#E0E4FF;" d="M376.764,373.234c-0.215-0.008-0.396,0.161-0.404,0.376c-0.007,0.215,0.161,0.396,0.376,0.404
							c0.215,0.008,0.396-0.161,0.404-0.376S376.979,373.242,376.764,373.234z"/>
						<path style="fill:#E0E4FF;" d="M376.464,372.149c-0.204,0.069-0.314,0.29-0.245,0.494c0.069,0.204,0.29,0.314,0.494,0.245
							c0.204-0.069,0.314-0.29,0.245-0.494C376.89,372.19,376.668,372.08,376.464,372.149z"/>
						<path style="fill:#E0E4FF;" d="M375.802,371.239c-0.167,0.136-0.192,0.382-0.055,0.549c0.136,0.167,0.382,0.192,0.549,0.056
							c0.167-0.136,0.192-0.382,0.055-0.549C376.215,371.128,375.969,371.103,375.802,371.239z"/>
						<path style="fill:#E0E4FF;" d="M374.622,370.565c-0.108,0.186-0.045,0.425,0.141,0.533c0.186,0.108,0.425,0.045,0.533-0.141
							c0.108-0.186,0.045-0.425-0.141-0.533C374.969,370.315,374.73,370.379,374.622,370.565z"/>
					</g>
				</g>
			</g>
		</g>
		<g>
			<rect x="121.215" y="107.224" style="fill:#E1E5F2;" width="178.955" height="287.222"/>
			<rect x="118.531" y="109.013" style="fill:#D7D9E3;" width="178.954" height="287.222"/>
			<rect x="115.846" y="111.698" style="fill:#E1E5F2;" width="178.955" height="287.222"/>
			<rect x="113.162" y="113.487" style="fill:#D7D9E3;" width="178.954" height="287.222"/>
			<rect x="110.478" y="116.172" style="fill:#F0F0F2;" width="178.954" height="287.222"/>

				<rect x="117.636" y="128.698" style="fill:none;stroke:#BFC4D8;stroke-width:0.8948;stroke-miterlimit:10;" width="92.162" height="6.263"/>
			<text transform="matrix(1 0 0 1 117.1899 178.1357)" style="fill:#7986B5; font-family:'Raleway-Light'; font-size:38.1228px;">NEWS</text>

				<line style="fill:none;stroke:#BFC4D8;stroke-width:0.8948;stroke-miterlimit:10;" x1="117.636" y1="183.279" x2="280.485" y2="183.279"/>

				<line style="fill:none;stroke:#BFC4D8;stroke-width:0.8948;stroke-miterlimit:10;" x1="117.636" y1="187.306" x2="280.485" y2="187.306"/>
			<path style="fill:#BFC4D8;" d="M166.329,312.127H120.84c-1.522,0-2.757-1.234-2.757-2.757V198.115
				c0-1.522,1.234-2.757,2.757-2.757h45.489c1.523,0,2.757,1.234,2.757,2.757V309.37
				C169.086,310.893,167.852,312.127,166.329,312.127z"/>
			<g>
				<path style="fill:none;stroke:#BFC4D8;stroke-width:0.8948;stroke-miterlimit:10;" d="M275.004,250.387h-91.938
					c-3.521,0-6.375-2.854-6.375-6.375v-42.725c0-3.521,2.854-6.375,6.375-6.375h91.938c3.521,0,6.375,2.854,6.375,6.375v42.725
					C281.38,247.533,278.525,250.387,275.004,250.387z"/>

					<rect x="181.165" y="199.385" style="fill:none;stroke:#E68068;stroke-width:0.8948;stroke-miterlimit:10;" width="86.793" height="4.489"/>
				<rect x="181.165" y="207.614" style="fill:#BFC4D8;" width="69.792" height="4.489"/>
				<rect x="181.165" y="215.843" style="fill:#BFC4D8;" width="46.528" height="4.489"/>
				<rect x="181.165" y="224.072" style="fill:#E68068;" width="86.793" height="4.488"/>
				<rect x="181.165" y="232.301" style="fill:#BFC4D8;" width="69.792" height="4.489"/>
				<rect x="181.165" y="240.53" style="fill:#BFC4D8;" width="46.528" height="4.489"/>
			</g>
			<g>
				<path style="fill:none;stroke:#BFC4D8;stroke-width:0.8948;stroke-miterlimit:10;" d="M275.004,312.127h-91.938
					c-3.521,0-6.375-2.854-6.375-6.375v-42.725c0-3.521,2.854-6.375,6.375-6.375h91.938c3.521,0,6.375,2.854,6.375,6.375v42.725
					C281.38,309.272,278.525,312.127,275.004,312.127z"/>

					<rect x="181.165" y="261.125" style="fill:none;stroke:#E68068;stroke-width:0.8948;stroke-miterlimit:10;" width="86.793" height="4.489"/>
				<rect x="181.165" y="269.354" style="fill:#BFC4D8;" width="69.792" height="4.489"/>
				<rect x="181.165" y="277.583" style="fill:#BFC4D8;" width="46.528" height="4.489"/>
				<rect x="181.165" y="285.812" style="fill:#E68068;" width="86.793" height="4.489"/>
				<g>
					<rect x="123.9" y="325.548" style="fill:#E68068;" width="86.793" height="4.489"/>
					<rect x="123.9" y="333.777" style="fill:#BFC4D8;" width="69.792" height="4.489"/>
					<rect x="123.9" y="342.006" style="fill:#BFC4D8;" width="46.528" height="4.489"/>

						<rect x="123.9" y="350.235" style="fill:none;stroke:#E68068;stroke-width:0.8948;stroke-miterlimit:10;" width="86.793" height="4.489"/>
				</g>
				<rect x="181.165" y="302.27" style="fill:#BFC4D8;" width="46.528" height="4.489"/>
				<rect x="234.852" y="292.442" style="fill:#BFC4D8;" width="33.107" height="16.106"/>
				<path style="fill:#BFC4D8;" d="M273.767,355.076h-53.673c-0.745,0-1.349-0.604-1.349-1.349v-26.829
					c0-0.745,0.604-1.349,1.349-1.349h53.673c0.745,0,1.349,0.604,1.349,1.349v26.829
					C275.116,354.472,274.512,355.076,273.767,355.076z"/>
				<path style="fill:#BFC4D8;" d="M210.065,384.603h-84.644c-0.84,0-1.522-0.681-1.522-1.522v-21.115
					c0-0.841,0.681-1.522,1.522-1.522h84.644c0.841,0,1.522,0.681,1.522,1.522v21.115
					C211.587,383.922,210.906,384.603,210.065,384.603z"/>
			</g>
			<path style="fill:#E68068;" d="M280.317,177.911h-38.139c-1.081,0-1.957-0.876-1.957-1.958V152.13
				c0-1.081,0.876-1.957,1.957-1.957h38.139c1.081,0,1.957,0.876,1.957,1.957v23.823
				C282.274,177.034,281.398,177.911,280.317,177.911z"/>
			<path style="fill:none;stroke:#BFC4D8;stroke-width:0.8948;stroke-miterlimit:10;" d="M273.965,390.867H124.156
				c-3.601,0-6.52-2.919-6.52-6.52v-56.753c0-3.601,2.919-6.52,6.52-6.52h149.809c3.601,0,6.52,2.919,6.52,6.52v56.753
				C280.485,387.948,277.566,390.867,273.965,390.867z"/>
			<rect x="226.351" y="358.207" style="fill:#BFC4D8;" width="49.213" height="5.369"/>
			<rect x="237.536" y="368.497" style="fill:#BFC4D8;" width="38.475" height="5.369"/>
		</g>
		<g>
			<path style="fill:#2E4EBE;" d="M296.967,426.375v-43.753h46.055c12.082,0,21.876,9.794,21.876,21.876l0,0
				c0,12.082-9.794,21.876-21.876,21.876H296.967z"/>
			<polygon style="fill:#344173;" points="170.122,417.638 170.122,391.359 285.91,388.518 285.91,420.479 			"/>

				<rect x="249.735" y="372.719" transform="matrix(-1.836970e-16 1 -1 -1.836970e-16 684.9227 123.9151)" style="fill:#FFC070;" width="61.538" height="63.4"/>

				<rect x="265.261" y="357.192" transform="matrix(-1.836970e-16 1 -1 -1.836970e-16 669.3963 108.3886)" style="fill:#FFCF93;" width="30.486" height="63.4"/>

				<rect x="251.023" y="375.869" transform="matrix(-1 -1.224647e-16 1.224647e-16 -1 561.0077 777.7848)" style="fill:none;stroke:#FFE2BD;stroke-width:0.4439;stroke-miterlimit:10;" width="58.961" height="26.047"/>

				<rect x="251.023" y="407.455" transform="matrix(-1 -1.224647e-16 1.224647e-16 -1 561.0077 840.9572)" style="fill:none;stroke:#FFE2BD;stroke-width:0.4439;stroke-miterlimit:10;" width="58.961" height="26.046"/>
		</g>
		<g>
			<g>
				<g>
					<polygon style="fill:#FFC373;" points="362.759,191.782 373.296,196.86 363.094,196.86 362.262,196.066 362.262,197.083
						358.422,197.083 359.838,191.974 					"/>
					<path style="fill:#2E4EBE;" d="M309.611,180.939c0,0-1.432-9.118,39.686-16.317l13.8,27.351l-2.921,0.192l-13.492-15.671
						C346.683,176.495,326.811,196.048,309.611,180.939z"/>
				</g>
				<g>
					<polygon style="fill:#FFC373;" points="374.232,199.588 382.942,191.782 379.055,201.213 378.003,201.68 378.943,202.068
						377.48,205.618 373.296,202.362 					"/>
					<path style="fill:#2E4EBE;" d="M308.731,185.875c0,0-4.99,14.939,7.845,14.939c12.835,0,17.94-1.226,29.698-3.73l27.187,4.932
						l1.301-2.831l-27.62-9.833C347.143,189.352,313.396,183.548,308.731,185.875z"/>
				</g>
			</g>
			<g>
				<g>
					<polygon style="fill:#F0B291;" points="307.776,138.259 305.44,145.462 312.552,144.145 312.552,138.202 					"/>
					<path style="fill:#DB9680;" d="M307.061,138.665c0,0,2.089,3.55,6.077,2.912l-0.586-1.948L307.061,138.665z"/>
				</g>
				<g>
					<g>
						<path style="fill:#F0B291;" d="M318.275,123.692c0,0-1.197,7.451,0,10.379c0,0-1.064,0.532-2.129,0
							c0,0,0.286,2.483-1.649,4.617c-0.645,0.712-1.574,1.104-2.535,1.104h-2.458c-0.918,0-1.793-0.368-2.444-1.014
							c-1.5-1.489-3.968-4.377-3.688-7.036l1.198-1.796c0,0-1.996-4.258,0.133-4.79c2.129-0.532,2.528,1.331,2.528,1.331
							l1.331-5.589C308.562,120.898,315.215,117.172,318.275,123.692z"/>
					</g>
					<path style="fill:#DB9680;" d="M318.275,134.071c0,0-1.868-1.203-2.782-0.531c-0.915,0.671,0.654,0.531,0.654,0.531
						S317.298,134.592,318.275,134.071z"/>
					<path style="fill:none;stroke:#374475;stroke-width:0.3454;stroke-miterlimit:10;" d="M314.681,135.436
						c0,0-2.219,1.606-2.895-1.134"/>
					<path style="fill:#21273D;" d="M315.142,126.05c0,0-2.182,0.762-2.234,1.818C312.856,128.923,316.081,126.636,315.142,126.05z"
						/>
					<path style="fill:#21273D;" d="M314.755,128.954c-0.233,0.46-0.232,0.928,0.003,1.047c0.234,0.119,0.613-0.158,0.846-0.617
						c0.233-0.46,0.232-0.929-0.003-1.048C315.367,128.218,314.988,128.494,314.755,128.954z"/>
				</g>
				<g>
					<g>
						<polygon style="fill:#D3D3F2;" points="333.642,130.699 351.651,131.689 352.45,165.73 333.145,169.647 						"/>
						<g>

								<line style="fill:none;stroke:#AEAEF2;stroke-width:0.7366;stroke-linecap:round;stroke-linejoin:round;stroke-miterlimit:10;" x1="342.998" y1="137.641" x2="349.426" y2="137.923"/>

								<line style="fill:none;stroke:#AEAEF2;stroke-width:0.7366;stroke-linecap:round;stroke-linejoin:round;stroke-miterlimit:10;" x1="342.936" y1="141.769" x2="349.09" y2="141.878"/>

								<line style="fill:none;stroke:#AEAEF2;stroke-width:0.7366;stroke-linecap:round;stroke-linejoin:round;stroke-miterlimit:10;" x1="335.248" y1="145.586" x2="349.027" y2="145.968"/>

								<line style="fill:none;stroke:#AEAEF2;stroke-width:0.7366;stroke-linecap:round;stroke-linejoin:round;stroke-miterlimit:10;" x1="334.871" y1="149.287" x2="348.833" y2="149.758"/>

								<line style="fill:none;stroke:#AEAEF2;stroke-width:0.7366;stroke-linecap:round;stroke-linejoin:round;stroke-miterlimit:10;" x1="334.816" y1="153.449" x2="349.092" y2="154.073"/>

								<line style="fill:none;stroke:#AEAEF2;stroke-width:0.7366;stroke-linecap:round;stroke-linejoin:round;stroke-miterlimit:10;" x1="334.507" y1="158.19" x2="348.783" y2="158.815"/>

								<line style="fill:none;stroke:#AEAEF2;stroke-width:0.7366;stroke-linecap:round;stroke-linejoin:round;stroke-miterlimit:10;" x1="334.508" y1="162.75" x2="348.784" y2="163.375"/>
							<polygon style="fill:#AEAEF2;" points="341.528,136.381 335.513,136.273 335.419,143.602 341.406,143.708 							"/>
						</g>
					</g>
					<g>
						<g>
							<path style="fill:#F0B291;" d="M346.711,148.343c0,0,0.197-2.908,0.787-2.795c0.59,0.113,0.312,1.607,0.312,1.607
								s3.756-2.854,5.523-2.709c1.767,0.146-3.565,5.669-5.265,6.194S346.711,148.343,346.711,148.343z"/>
							<polygon style="fill:#F0B291;" points="346.917,147.974 343.252,151.206 344.779,153.832 349.297,149.45 							"/>
						</g>
						<g>
							<path style="fill:#FFC373;" d="M319.131,144.984c-2.128-3.352-7.365-1.896-7.76,2.054c-0.67,6.708-0.472,18.792,8.819,22.574
								c13.1,5.334,26.953-17.486,26.953-17.486l-1.073-4.077c0,0-16.447,15.767-21.602,12.358
								C320.925,158.064,321.967,149.451,319.131,144.984z"/>

								<path style="fill:none;stroke:#C99146;stroke-width:0.4474;stroke-linecap:round;stroke-linejoin:round;stroke-miterlimit:10;" d="
								M335.783,156.555c-4.193,3.478-8.93,5.333-11.222,3.817c-3.543-2.344-2.502-10.956-5.337-15.423
								c-2.128-3.352-7.365-1.897-7.76,2.054"/>
							<path style="fill:none;stroke:#BF5233;stroke-width:0.3454;stroke-miterlimit:10;" d="M320.282,169.577
								c6.433,2.619,13.61-2.385,19.247-8.156"/>
						</g>
					</g>
					<path style="fill:#FFC373;" d="M313.666,142.72c0,0,8.481,5.684,7.447,12.509c-1.034,6.825,1.35,19.752,3.725,20.579
						c0,0,1.819-2.379,1.167-3.413s-3.717-7.963-3.012-9.41c0.705-1.448,5.397-18.408-10.289-21.924
						C312.704,141.061,311.798,141.251,313.666,142.72z"/>
					<path style="fill:#FFFFFF;" d="M314.556,190.814c0,0-5.739,6.389-8.983,2.442c-3.144-3.825-0.922-26.786-4.154-32.732
						c-3.232-5.945,6.601-15.681,6.601-15.681l4.939-3.67c0,0,11.432,5.242,9.992,13.794c-1.44,8.552,0,14.029,0,14.029
						S329.85,180.872,314.556,190.814z"/>
					<path style="fill:#F0B291;" d="M305.44,145.462l7.518-4.288c0,0,3.437,7.145-8.559,4.288"/>
					<path style="fill:#FFC373;" d="M312.049,146.161c0,0-4.99-2.42-7.387-0.699c-2.397,1.721-4.221,45.278-1.049,50.315
						c3.172,5.037,19.7-7.368,18.852-11.171c-0.848-3.803-5.98-4.937-5.462-9.879C317.521,169.785,317.969,148.936,312.049,146.161z
						"/>
					<g>
						<polygon style="fill:#DADAF2;" points="329.895,136.852 351.573,131.315 352.45,165.73 330.196,172.616 						"/>
						<g>

								<line style="fill:none;stroke:#AEAEF2;stroke-width:0.775;stroke-linecap:round;stroke-linejoin:round;stroke-miterlimit:10;" x1="341.306" y1="139.849" x2="349.041" y2="137.807"/>

								<line style="fill:none;stroke:#AEAEF2;stroke-width:0.775;stroke-linecap:round;stroke-linejoin:round;stroke-miterlimit:10;" x1="341.327" y1="143.642" x2="348.728" y2="141.541"/>

								<line style="fill:none;stroke:#AEAEF2;stroke-width:0.775;stroke-linecap:round;stroke-linejoin:round;stroke-miterlimit:10;" x1="332.17" y1="149.881" x2="348.748" y2="145.3"/>

								<line style="fill:none;stroke:#AEAEF2;stroke-width:0.775;stroke-linecap:round;stroke-linejoin:round;stroke-miterlimit:10;" x1="331.802" y1="153.397" x2="348.601" y2="148.833"/>

								<line style="fill:none;stroke:#AEAEF2;stroke-width:0.775;stroke-linecap:round;stroke-linejoin:round;stroke-miterlimit:10;" x1="331.831" y1="157.219" x2="349.012" y2="152.683"/>

								<line style="fill:none;stroke:#AEAEF2;stroke-width:0.775;stroke-linecap:round;stroke-linejoin:round;stroke-miterlimit:10;" x1="331.57" y1="161.661" x2="348.75" y2="157.125"/>

								<line style="fill:none;stroke:#AEAEF2;stroke-width:0.775;stroke-linecap:round;stroke-linejoin:round;stroke-miterlimit:10;" x1="331.676" y1="165.828" x2="348.857" y2="161.292"/>
							<polygon style="fill:#AEAEF2;" points="339.509,139.223 332.274,141.277 332.33,148.006 339.532,145.961 							"/>
						</g>
					</g>
					<g>
						<g>
							<path style="fill:#F0B291;" d="M335.63,163.285c0,0,1.217-2.648,1.728-2.333c0.511,0.316-0.279,1.613-0.279,1.613
								s4.525-1.334,6.125-0.57c1.6,0.764-5.346,4.033-7.122,3.92C334.307,165.803,335.63,163.285,335.63,163.285z"/>
							<polygon style="fill:#F0B291;" points="335.953,163.013 331.379,164.733 331.874,167.73 337.653,165.238 							"/>
						</g>
						<g>
							<path style="fill:#FFC373;" d="M311.041,150.348c-0.798-3.889-6.211-4.389-7.983-0.836
								c-3.009,6.032-7.116,17.398,0.225,24.234c10.351,9.639,31.407-6.771,31.407-6.771l0.445-4.192c0,0-20.975,8.896-24.583,3.879
								C308.072,163.213,312.105,155.532,311.041,150.348z"/>

								<path style="fill:none;stroke:#C99146;stroke-width:0.4474;stroke-linecap:round;stroke-linejoin:round;stroke-miterlimit:10;" d="
								M322.497,167.08c-5.155,1.762-10.242,1.813-11.846-0.418c-2.48-3.449,1.553-11.13,0.489-16.314
								c-0.798-3.889-6.211-4.389-7.983-0.836"/>

								<path style="fill:none;stroke:#C99146;stroke-width:0.4474;stroke-linecap:round;stroke-linejoin:round;stroke-miterlimit:10;" d="
								M303.382,173.747c5.083,4.734,13.569,2.605,20.889-0.787"/>
						</g>
					</g>
				</g>
			</g>
		</g>
		<path style="fill:#21273D;" d="M307.232,126.486c0,0-0.522,3.687,0.903,2.683c1.425-1.004,2.678-6.801,2.678-6.801
			s9.77,5.132,9.865,1.33c0.095-3.801-3.53-9.169-11.683-5.512c0,0-2.723-3.252-5.839-0.218c-2.884,2.808,0.216,13.773,0.216,13.773
			l1.198-1.796c0,0-2.223-4.754,0.87-4.886C306.855,125,307.232,126.486,307.232,126.486z"/>
		<g>
			<g>
				<path style="fill:#374475;" d="M399.38,357.776c0,0,5.09,9.343,0.547,15.658c-4.542,6.314-18.615,1.016-18.615,1.016
					s-3.931-11.046,1.892-16.674C389.027,352.148,399.38,357.776,399.38,357.776z"/>
				<g>
					<g>
						<path style="fill:#FFFFFF;" d="M383.027,370.522c-0.729-1.355-2.606-1.537-3.593-0.357
							c-3.415,4.081-11.798,14.608-12.285,20.164c-0.612,6.988,15.906,12.214,15.906,12.214l2.063-3.002
							c0,0-12.008-8.165-10.19-10.085C376.518,387.777,386.079,376.19,383.027,370.522z"/>

							<path style="fill:none;stroke:#2F5E94;stroke-width:0.6836;stroke-linecap:round;stroke-linejoin:round;stroke-miterlimit:10;" d="
							M383.976,401.205l1.144-1.665c0,0-7.184-4.885-9.597-7.986"/>
					</g>
					<path style="fill:#FFFFFF;" d="M405.316,407.97h-29.829l2.844-31.309c0.717-6.123,5.905-10.74,12.071-10.74l0,0
						c6.165,0,11.353,4.616,12.071,10.74L405.316,407.97z"/>
					<g>
						<path style="fill:#FFFFFF;" d="M397.809,370.522c0.729-1.355,2.606-1.537,3.593-0.357
							c3.415,4.081,11.798,14.608,12.285,20.164c0.612,6.988-15.906,12.214-15.906,12.214l-2.063-3.002
							c0,0,12.008-8.165,10.19-10.085C404.318,387.777,394.757,376.19,397.809,370.522z"/>

							<path style="fill:none;stroke:#2F5E94;stroke-width:0.6836;stroke-linecap:round;stroke-linejoin:round;stroke-miterlimit:10;" d="
							M404.894,388.293c-2.241-2.703-6.822-8.898-7.576-13.843"/>

							<path style="fill:none;stroke:#2F5E94;stroke-width:0.6836;stroke-linecap:round;stroke-linejoin:round;stroke-miterlimit:10;" d="
							M396.86,401.205l-1.144-1.665c0,0,7.184-4.885,9.597-7.986"/>
					</g>

						<path style="fill:none;stroke:#2F5E94;stroke-width:0.6836;stroke-linecap:round;stroke-linejoin:round;stroke-miterlimit:10;" d="
						M375.941,388.293c2.241-2.703,6.823-8.898,7.577-13.843"/>
				</g>
				<g>
					<g>
						<path style="fill:#ECB99A;" d="M378.468,416.411l-7.352,3.452c0,0,0.991,3.56,1.22,3.408c0.229-0.152,6.736-3.887,6.736-3.887
							L378.468,416.411z"/>
						<path style="fill:#3E7DC7;" d="M371.116,419.863c0,0-8.214,2.66-8.162,5.736c0.052,3.077,9.382-2.328,9.382-2.328
							S373.971,421.305,371.116,419.863z"/>
						<path style="fill:#3E7DC7;" d="M368.94,420.689c0,0,0.929-2.909,2.176-2.909c1.247,0,2.633,0.846,2.633,0.846
							c-0.043,0.019-2.429,1.142-2.472,1.161C371.241,419.803,368.977,420.673,368.94,420.689z"/>
					</g>
					<path style="fill:#374475;" d="M372.869,419.202c0,0,39.483-35.132,46.044-24.009c6.56,11.124-44.564,27.433-44.564,27.433
						L372.869,419.202z"/>
				</g>
				<g>
					<g>
						<path style="fill:#ECB99A;" d="M403.519,417.779l7.352,3.452c0,0-0.991,3.56-1.22,3.408c-0.229-0.152-6.736-3.887-6.736-3.887
							L403.519,417.779z"/>
						<path style="fill:#3E7DC7;" d="M410.871,421.23c0,0,8.214,2.66,8.162,5.736c-0.052,3.076-9.381-2.329-9.381-2.329
							S408.016,422.672,410.871,421.23z"/>
						<path style="fill:#3E7DC7;" d="M412.856,422.056c0,0-0.929-2.909-2.176-2.909c-1.247,0-2.634,0.846-2.634,0.846
							L412.856,422.056z"/>
					</g>
					<path style="fill:#374475;" d="M408.123,419.741c0,0-39.391-35.347-45.951-24.223c-6.56,11.124,44.459,27.676,44.459,27.676
						L408.123,419.741z"/>
				</g>
				<g>
					<g>
						<path style="fill:#ECB08B;" d="M391.044,376.478L391.044,376.478c-3.845,0-6.961-3.117-6.961-6.961v-8.464h13.923v8.464
							C398.005,373.361,394.888,376.478,391.044,376.478z"/>
						<path style="fill:none;stroke:#37424F;stroke-width:0.3112;stroke-miterlimit:10;" d="M389.244,360.57
							c0,0,2.252,2.218,4.124-0.416"/>
						<path style="fill:#ECB99A;" d="M398.821,353.603c0,0,2.242-1.437,2.903,0.701c0.661,2.138-2.903,3.849-2.903,3.849V353.603z"
							/>
						<path style="fill:#ECB99A;" d="M383.204,353.603c0,0-2.242-1.437-2.902,0.701c-0.661,2.138,2.902,3.849,2.902,3.849V353.603z"
							/>
					</g>
					<path style="fill:#ECB99A;" d="M391.292,365.864L391.292,365.864c-4.467,0-8.088-3.621-8.088-8.088v-15.254h16.177v15.254
						C399.38,362.243,395.759,365.864,391.292,365.864z"/>
					<g>
						<g>
							<path style="fill:#37424F;" d="M388.069,354.245c0,0.527-0.256,0.953-0.572,0.953c-0.316,0-0.572-0.427-0.572-0.953
								c0-0.526,0.256-0.953,0.572-0.953C387.813,353.292,388.069,353.719,388.069,354.245z"/>
							<path style="fill:#37424F;" d="M395.493,354.245c0,0.527-0.256,0.953-0.572,0.953c-0.316,0-0.572-0.427-0.572-0.953
								c0-0.526,0.256-0.953,0.572-0.953C395.237,353.292,395.493,353.719,395.493,354.245z"/>
						</g>
						<path style="fill:none;stroke:#37424F;stroke-width:0.3112;stroke-miterlimit:10;" d="M391.229,362.509
							c0,0,2.98,1.155,3.12-2.009"/>
						<path style="fill:none;stroke:#37424F;stroke-width:0.3112;stroke-miterlimit:10;" d="M391.597,354.245
							c0,0-0.406,3.983-1.468,5.483c-1.063,1.501,2.025,0,2.025,0"/>
					</g>
				</g>
				<path style="fill:#374475;" d="M398.005,342.522c0,0-4.935,10.915-14.801,11.081c0,0-4.033-6.816,0.314-12.944
					C387.865,334.53,395.713,337.728,398.005,342.522z"/>
				<path style="fill:#374475;" d="M395.716,341.845c0,0,4.176-3,6.089,0c2.296,3.599-2.325,11.447-2.325,11.447
					S394.509,351.455,395.716,341.845z"/>
				<path style="fill:none;stroke:#37424F;stroke-width:0.3112;stroke-miterlimit:10;" d="M387.497,364.918
					c0,0,4.814,2.676,8.685-0.708"/>
				<g>

						<path style="fill:none;stroke:#37424F;stroke-width:0.3112;stroke-linecap:round;stroke-linejoin:round;stroke-miterlimit:10;" d="
						M381.712,354.57c0,0-0.898,0.722,0,1.2"/>

						<path style="fill:none;stroke:#37424F;stroke-width:0.3112;stroke-linecap:round;stroke-linejoin:round;stroke-miterlimit:10;" d="
						M400.114,354.57c0,0,0.898,0.722,0,1.2"/>
				</g>
			</g>
			<g>
				<polygon style="fill:#DADAF2;" points="410.388,364.848 389.51,378.917 389.51,411.738 410.972,398.414 				"/>
				<polygon style="fill:#D3D3F2;" points="369.425,364.848 390.303,378.917 390.303,411.738 368.841,398.414 				"/>
				<g>

						<line style="fill:none;stroke:#AEAEF2;stroke-width:0.7404;stroke-linecap:round;stroke-linejoin:round;stroke-miterlimit:10;" x1="400.241" y1="377.254" x2="392.789" y2="382.212"/>

						<line style="fill:none;stroke:#AEAEF2;stroke-width:0.7404;stroke-linecap:round;stroke-linejoin:round;stroke-miterlimit:10;" x1="400.313" y1="380.804" x2="393.18" y2="385.412"/>

						<line style="fill:none;stroke:#AEAEF2;stroke-width:0.7404;stroke-linecap:round;stroke-linejoin:round;stroke-miterlimit:10;" x1="409.228" y1="378.492" x2="393.253" y2="388.929"/>

						<line style="fill:none;stroke:#AEAEF2;stroke-width:0.7404;stroke-linecap:round;stroke-linejoin:round;stroke-miterlimit:10;" x1="409.665" y1="381.44" x2="393.479" y2="392.088"/>

						<line style="fill:none;stroke:#AEAEF2;stroke-width:0.7404;stroke-linecap:round;stroke-linejoin:round;stroke-miterlimit:10;" x1="409.73" y1="385.025" x2="393.18" y2="396.038"/>

						<line style="fill:none;stroke:#AEAEF2;stroke-width:0.7404;stroke-linecap:round;stroke-linejoin:round;stroke-miterlimit:10;" x1="410.089" y1="388.929" x2="393.538" y2="399.942"/>

						<line style="fill:none;stroke:#AEAEF2;stroke-width:0.7404;stroke-linecap:round;stroke-linejoin:round;stroke-miterlimit:10;" x1="410.089" y1="392.902" x2="393.538" y2="403.915"/>
					<polygon style="fill:#AEAEF2;" points="401.945,375.078 408.918,370.573 409.029,376.889 402.087,381.371 					"/>
				</g>
				<g>

						<line style="fill:none;stroke:#AEAEF2;stroke-width:0.7404;stroke-linecap:round;stroke-linejoin:round;stroke-miterlimit:10;" x1="380.27" y1="377.757" x2="387.722" y2="382.716"/>

						<line style="fill:none;stroke:#AEAEF2;stroke-width:0.7404;stroke-linecap:round;stroke-linejoin:round;stroke-miterlimit:10;" x1="380.198" y1="381.307" x2="387.332" y2="385.916"/>

						<line style="fill:none;stroke:#AEAEF2;stroke-width:0.7404;stroke-linecap:round;stroke-linejoin:round;stroke-miterlimit:10;" x1="371.283" y1="378.995" x2="387.258" y2="389.432"/>

						<line style="fill:none;stroke:#AEAEF2;stroke-width:0.7404;stroke-linecap:round;stroke-linejoin:round;stroke-miterlimit:10;" x1="370.846" y1="381.943" x2="387.032" y2="392.592"/>

						<line style="fill:none;stroke:#AEAEF2;stroke-width:0.7404;stroke-linecap:round;stroke-linejoin:round;stroke-miterlimit:10;" x1="370.781" y1="385.528" x2="387.332" y2="396.541"/>

						<line style="fill:none;stroke:#AEAEF2;stroke-width:0.7404;stroke-linecap:round;stroke-linejoin:round;stroke-miterlimit:10;" x1="370.422" y1="389.432" x2="386.973" y2="400.445"/>

						<line style="fill:none;stroke:#AEAEF2;stroke-width:0.7404;stroke-linecap:round;stroke-linejoin:round;stroke-miterlimit:10;" x1="370.422" y1="393.406" x2="386.973" y2="404.419"/>
					<polygon style="fill:#AEAEF2;" points="378.566,375.581 371.593,371.077 371.483,377.392 378.424,381.875 					"/>
				</g>
			</g>
		</g>
		<g>

				<line style="fill:none;stroke:#374475;stroke-width:0.8948;stroke-miterlimit:10;" x1="434.767" y1="302.148" x2="446.59" y2="271.255"/>

				<line style="fill:none;stroke:#374475;stroke-width:0.8948;stroke-miterlimit:10;" x1="440.67" y1="305.778" x2="453.528" y2="294.158"/>

				<line style="fill:none;stroke:#374475;stroke-width:0.8948;stroke-miterlimit:10;" x1="445.67" y1="313.951" x2="466.221" y2="309.489"/>
		</g>
		<g>

				<line style="fill:none;stroke:#374475;stroke-width:0.8948;stroke-miterlimit:10;" x1="84.663" y1="187.306" x2="87.954" y2="153.832"/>
			<path style="fill:none;stroke:#374475;stroke-width:0.8948;stroke-miterlimit:10;" d="M69.899,192.166
				c-0.157-1.56-20.703-23.794-20.703-23.794"/>

				<line style="fill:none;stroke:#374475;stroke-width:0.8948;stroke-miterlimit:10;" x1="63.329" y1="207.614" x2="33.906" y2="212.103"/>
		</g>
		<g>
			<g>

					<path style="fill:none;stroke:#FFE8D2;stroke-width:9.2325;stroke-linecap:round;stroke-linejoin:round;stroke-miterlimit:10;" d="
					M129.147,366.652c0,0-24.502-4.934-23.791,15.661c0.71,20.596,28.777,22.726,28.777,22.726"/>
				<path style="fill:#FFE8D2;" d="M173.042,444.455h3.823c23.851,0,43.186-19.335,43.186-43.186V354.26h-90.195v47.009
					C129.857,425.12,149.192,444.455,173.042,444.455z"/>
				<ellipse style="fill:#FFF1E3;" cx="174.954" cy="354.26" rx="45.097" ry="19.175"/>
				<path style="fill:none;" d="M221.435,369.885c0,1.242-0.477,2.506-1.383,3.755v-7.51
					C220.958,367.379,221.435,368.643,221.435,369.885z"/>
				<path style="fill:none;" d="M174.954,353.232c5.617,0,10.877,0.374,15.703,1.029h-31.405
					C164.077,353.606,169.337,353.232,174.954,353.232z"/>
				<path style="fill:none;" d="M128.473,369.885c0-1.242,0.477-2.506,1.384-3.755v7.51
					C128.95,372.391,128.473,371.127,128.473,369.885z"/>
				<path style="fill:#FFE8D2;" d="M220.051,354.26v4.815c-2.336-1.788-5.251-3.406-8.66-4.815H220.051z"/>
				<path style="fill:#FFE8D2;" d="M129.857,354.26h8.66c-3.41,1.409-6.324,3.027-8.66,4.815V354.26z"/>
				<path style="fill:#2E4EBE;" d="M174.954,353.232c-5.617,0-10.877,0.374-15.703,1.029h-20.734
					c9.186-3.794,21.927-6.073,36.437-6.073s27.251,2.279,36.437,6.073h-20.734C185.831,353.606,180.571,353.232,174.954,353.232z"
					/>
				<path style="fill:#E68068;" d="M174.954,386.537c23.073,0,40.252-6.227,45.097-12.898v7.054
					c-8.63,6.605-25.201,10.888-45.097,10.888c-19.896,0-36.467-4.283-45.097-10.888v-7.054
					C134.701,380.311,151.881,386.537,174.954,386.537z"/>
				<path style="fill:#E68068;" d="M174.954,400.741c23.073,0,40.252-6.227,45.097-12.898v7.054
					c-8.63,6.605-25.201,10.888-45.097,10.888c-19.896,0-36.467-4.283-45.097-10.888v-7.054
					C134.701,394.514,151.881,400.741,174.954,400.741z"/>
				<ellipse style="fill:#FFCCBF;" cx="174.954" cy="354.26" rx="42.256" ry="17.967"/>
				<path style="fill:#FFDFBB;" d="M174.954,342.685c-20.771,0-38.029,6.374-41.577,14.771c-0.438-1.038-0.68-2.104-0.68-3.196
					c0-9.923,18.919-17.967,42.256-17.967c23.338,0,42.256,8.044,42.256,17.967c0,1.091-0.241,2.158-0.68,3.196
					C212.983,349.059,195.725,342.685,174.954,342.685z"/>
			</g>
			<g>

					<path style="fill:none;stroke:#FFFFFF;stroke-width:0.6055;stroke-linecap:round;stroke-linejoin:round;stroke-miterlimit:10;" d="
					M175.03,358.054c0,0,36.465-50.522,7.094-60.187c-29.37-9.665-27.476,17.77-23.647,23.528
					c3.829,5.757,21.225,2.717,16.476-10.048"/>

					<path style="fill:none;stroke:#FFFFFF;stroke-width:0.6055;stroke-linecap:round;stroke-linejoin:round;stroke-miterlimit:10;" d="
					M176.53,356.231c0,0,7.591-27.494-6.553-26.958c-14.144,0.536-8.957,12.006-6.396,13.866c2.561,1.86,9.541-2.218,5.468-6.939"/>
			</g>
		</g>
		<g>
			<g>
				<g>
					<g>
						<path style="fill:none;stroke:#4DBEAF;stroke-width:1.0081;stroke-miterlimit:10;" d="M330.087,302.186
							c0,0-10.718-39.456,1.105-41.02C343.014,259.603,330.087,302.186,330.087,302.186z"/>
						<path style="fill:none;stroke:#FFFFFF;stroke-width:0.3011;stroke-miterlimit:10;" d="M330.059,305.558
							c0,0-0.369-28.245,1.699-39.174"/>
					</g>
					<g>
						<path style="fill:none;stroke:#4DBEAF;stroke-width:1.0081;stroke-miterlimit:10;" d="M327.094,309.989
							c0,0-23.873-33.192-13.35-38.802C324.267,265.576,327.094,309.989,327.094,309.989z"/>
						<path style="fill:none;stroke:#FFFFFF;stroke-width:0.3011;stroke-miterlimit:10;" d="M328.25,313.156
							c0,0-10.25-26.322-12.147-37.282"/>
					</g>
					<g>
						<path style="fill:none;stroke:#4DBEAF;stroke-width:1.0081;stroke-miterlimit:10;" d="M331.189,309.989
							c0,0,23.873-33.192,13.35-38.802C334.016,265.576,331.189,309.989,331.189,309.989z"/>
						<path style="fill:none;stroke:#FFFFFF;stroke-width:0.3011;stroke-miterlimit:10;" d="M330.033,313.156
							c0,0,10.25-26.322,12.147-37.282"/>
					</g>
					<path style="fill:#344173;" d="M316.857,305.292l3.77,13.375c1.153,4.092,4.887,6.919,9.139,6.919l0,0
						c4.45,0,8.303-3.091,9.269-7.435l2.857-12.859H316.857z"/>
					<rect x="316.857" y="300.153" style="fill:#344173;" width="25.035" height="5.139"/>
					<rect x="316.857" y="303.84" style="fill:#FFCF93;" width="25.035" height="2.786"/>
				</g>

					<line style="fill:none;stroke:#FFFFFF;stroke-width:0.1271;stroke-miterlimit:10;" x1="336.015" y1="308.292" x2="332.238" y2="324.611"/>

					<line style="fill:none;stroke:#FFFFFF;stroke-width:0.1271;stroke-miterlimit:10;" x1="338.192" y1="309.189" x2="336.737" y2="315.475"/>

					<line style="fill:none;stroke:#FFFFFF;stroke-width:0.1271;stroke-miterlimit:10;" x1="335.581" y1="316.451" x2="334.127" y2="322.737"/>
			</g>
			<g>
				<g>
					<path style="fill:#4DBEAF;" d="M111.932,374.517c1.662,0.261,8.569,0.984,12.393-4.245c0.329-0.45,0.277-1.077-0.113-1.476
						l-0.409-0.418c-0.444-0.455-0.437-1.183,0.02-1.624c2.336-2.254,8.451-8.784,4.179-11.649
						c-4.14-2.776-9.214,3.248-11.121,5.836c-0.419,0.568-1.247,0.622-1.741,0.117l0,0c-0.496-0.507-1.325-0.448-1.746,0.123
						c-1.87,2.538-5.957,9.047-2.087,13.022C111.475,374.373,111.696,374.479,111.932,374.517z"/>
					<g>
						<path style="fill:#4DBEAF;" d="M101.941,361.806c-2.334-1.741-11.586-9.416-9.74-20.476c0.159-0.952,0.998-1.646,1.963-1.646
							h1.012c1.1,0,1.993-0.889,1.986-1.989c-0.036-5.619,0.647-21.088,9.362-19.267c8.445,1.765,7.128,15.335,6.232,20.826
							c-0.197,1.206,0.74,2.296,1.962,2.296l0,0c1.228,0,2.158,1.099,1.96,2.31c-0.879,5.385-3.991,18.319-13.593,18.337
							C102.671,362.199,102.271,362.053,101.941,361.806z"/>
						<path style="fill:#4DBEAF;" d="M92.4,374.763c-2.249,0.353-11.596,1.332-16.771-5.744c-0.445-0.609-0.375-1.457,0.153-1.997
							l0.553-0.566c0.601-0.615,0.592-1.6-0.027-2.197c-3.161-3.051-11.436-11.886-5.655-15.763
							c5.602-3.757,12.468,4.395,15.049,7.897c0.567,0.769,1.688,0.841,2.355,0.158l0,0c0.671-0.686,1.793-0.606,2.363,0.167
							c2.53,3.435,8.061,12.243,2.824,17.621C93.019,374.568,92.719,374.712,92.4,374.763z"/>
						<path style="fill:none;stroke:#1F2641;stroke-width:0.3053;stroke-miterlimit:10;" d="M106.038,326.938
							c0,0-6.177,21.663-1.707,75.237"/>
						<path style="fill:none;stroke:#1F2641;stroke-width:0.3053;stroke-miterlimit:10;" d="M73.324,350.418
							c0,0,17.374,27.813,29.827,33.794"/>
						<path style="fill:none;stroke:#1F2641;stroke-width:0.3053;stroke-miterlimit:10;" d="M125.564,357.349
							c0,0-13.276,20.782-22.479,25.202"/>
					</g>
				</g>
				<path style="fill:#E68068;" d="M83.55,398.316l5.771,20.475c1.766,6.265,7.481,10.592,13.99,10.592l0,0
					c6.813,0,12.711-4.732,14.189-11.382l4.374-19.685H83.55z"/>
				<rect x="83.55" y="390.448" style="fill:#E68068;" width="38.325" height="7.868"/>
				<rect x="83.55" y="396.092" style="fill:#FFCF93;" width="38.325" height="4.265"/>
			</g>
		</g>

			<line style="fill:none;stroke:#FFFFFF;stroke-width:0.1946;stroke-miterlimit:10;" x1="112.879" y1="402.907" x2="107.097" y2="427.889"/>

			<line style="fill:none;stroke:#FFFFFF;stroke-width:0.1946;stroke-miterlimit:10;" x1="116.211" y1="404.28" x2="113.984" y2="413.903"/>

			<line style="fill:none;stroke:#FFFFFF;stroke-width:0.1946;stroke-miterlimit:10;" x1="112.215" y1="415.398" x2="109.988" y2="425.021"/>
	</g>
</g>
 
</svg>
